<svg xmlns:mydata="http://www.w3.org/2000/svg" mydata:contrastcolor="ffffff" mydata:template="Default" mydata:presentation="2.5" mydata:layouttype="undefined" mydata:specialfontid="undefined" mydata:id1="348" mydata:id2="631" mydata:companyname="thinner" mydata:companytagline="Make every single scrollbars elegant." version="1.1" xmlns="http://www.w3.org/2000/svg" xmlns:xlink="http://www.w3.org/1999/xlink" style="height: 751px;" viewBox="0 0 550 470"><g fill="#2d2926" fill-rule="none" stroke="none" stroke-width="1" stroke-linecap="butt" stroke-linejoin="miter" stroke-miterlimit="10" stroke-dasharray="" stroke-dashoffset="0" font-family="none" font-weight="none" font-size="none" text-anchor="none" style="mix-blend-mode: normal; scrollbar-width: thin;"><g data-paper-data="{&quot;isGlobalGroup&quot;:true,&quot;bounds&quot;:{&quot;x&quot;:71.55394842320845,&quot;y&quot;:154.45453295027733,&quot;width&quot;:406.8921031535831,&quot;height&quot;:161.0909340994454}}" style="scrollbar-width: thin;"><g data-paper-data="{&quot;isSecondaryText&quot;:true}" fill-rule="nonzero" id="element-id-7500" style="scrollbar-width: thin;"><path d="M92.76871,315.54547h0.88108v-7.87683l2.40697,3.32644l0.21494,0.29767l0.68149,0.94164l0.10918,0.15182l0.21579,0.29682l0.00341,0.00418l3.63093,-5.01857v7.87683h0.87681l0.00426,-0.00094h0.00426v-9.10326h-1.08919l-3.42708,4.73719l-3.42623,-4.73548l-0.00085,-0.00171h-1.09005v9.10326h0.00426z" data-paper-data="{&quot;glyphName&quot;:&quot;M&quot;,&quot;glyphIndex&quot;:0,&quot;firstGlyphOfWord&quot;:true,&quot;word&quot;:1}" id="element-id-3873" style="scrollbar-width: thin;"></path><path d="M106.94736,313.78422h4.48137l0.64998,1.75781l0.00169,0.0026h0.94325l-0.65245,-1.76639l-0.12961,-0.34891l-2.58186,-6.9812l-0.00338,-0.00689h-0.93649l-2.39076,6.46095l-0.12883,0.34891l-0.19538,0.52714l-0.65076,1.76041l-0.00169,0.00585h0.94338zM109.18811,307.72574l1.91394,5.17399h-3.828z" data-paper-data="{&quot;glyphName&quot;:&quot;A&quot;,&quot;glyphIndex&quot;:1,&quot;word&quot;:1}" id="element-id-42149" style="scrollbar-width: thin;"></path><path d="M117.53821,315.54453h0.11344l2.74644,-3.79802l2.74644,3.7964l0.00085,0.00162h0.11259v0.00094h0.63629l0.00426,-0.00094h0.33947l-3.29402,-4.55201l3.28805,-4.54442l0.00512,-0.00682h-1.09175l-2.74985,3.80152l-2.94773,4.07446v-7.87598h-0.88534v9.1042h0.97575z" data-paper-data="{&quot;glyphName&quot;:&quot;K&quot;,&quot;glyphIndex&quot;:2,&quot;word&quot;:1}" id="element-id-11491" style="scrollbar-width: thin;"></path><path d="M127.78548,315.54547h7.67127v-0.88534h-6.78593v-3.22408h4.76107v-0.88534h-4.76107v-3.22494h6.78593v-0.88449h-7.67127z" data-paper-data="{&quot;glyphName&quot;:&quot;E&quot;,&quot;glyphIndex&quot;:3,&quot;lastGlyphOfWord&quot;:true,&quot;word&quot;:1}" id="element-id-5298" style="scrollbar-width: thin;"></path><path d="M146.21463,315.54547h7.67127v-0.88534h-6.78593v-3.22408h4.76107v-0.88534h-4.76107v-3.22494h6.78593v-0.88449h-7.67127z" data-paper-data="{&quot;glyphName&quot;:&quot;E&quot;,&quot;glyphIndex&quot;:4,&quot;firstGlyphOfWord&quot;:true,&quot;word&quot;:2}" id="element-id-13032" style="scrollbar-width: thin;"></path><path d="M161.27333,314.26014l-2.8906,-7.81629l-0.00169,-0.0026h-0.94338l0.65245,1.76639l0.12974,0.34891l2.58433,6.9864l0.00091,0.00247l0.93649,-0.00091l2.39076,-6.46095l0.19447,-0.52701l0.12961,-0.34891l0.65076,-1.76041l0.00169,-0.00598h-0.94416z" data-paper-data="{&quot;glyphName&quot;:&quot;V&quot;,&quot;glyphIndex&quot;:5,&quot;word&quot;:2}" id="element-id-83605" style="scrollbar-width: thin;"></path><path d="M168.64768,315.54547h7.67127v-0.88534h-6.78593v-3.22408h4.76107v-0.88534h-4.76107v-3.22494h6.78593v-0.88449h-7.67127z" data-paper-data="{&quot;glyphName&quot;:&quot;E&quot;,&quot;glyphIndex&quot;:6,&quot;word&quot;:2}" id="element-id-48944" style="scrollbar-width: thin;"></path><path d="M186.97213,311.54692c0.37358,-0.54417 0.57146,-1.18216 0.57146,-1.84489c0,-0.87084 -0.33947,-1.68966 -0.95528,-2.30548c-0.61582,-0.61582 -1.43463,-0.95528 -2.30548,-0.95528h-4.41213v9.1042h0.88108l0.00426,-0.00085v-2.58097h3.52688c0.10406,0 0.20044,-0.00426 0.29597,-0.01365l1.8756,2.59291l0.00085,0.00171h1.09261l-2.03936,-2.81979c0.59356,-0.24053 1.09934,-0.64738 1.46355,-1.1779zM184.59075,312.05783c-0.06738,0.00938 -0.13732,0.01535 -0.20641,0.01791c-0.03412,0.00171 -0.06738,0.00256 -0.1015,0.00256h-3.52688v-4.75169h3.52688c1.3101,0 2.37542,1.06531 2.37542,2.37542c0,1.04228 -0.69599,1.9788 -1.69307,2.27648c-0.12112,0.03668 -0.2465,0.06312 -0.37444,0.07932z" data-paper-data="{&quot;glyphName&quot;:&quot;R&quot;,&quot;glyphIndex&quot;:7,&quot;word&quot;:2}" id="element-id-36023" style="scrollbar-width: thin;"></path><path d="M193.76366,310.23767l-2.74559,-3.7947l-0.00085,-0.00171h-1.09346l3.29488,4.55295l0.1015,0.14073v4.41051h0.88534v-4.40795l3.39211,-4.68942l0.00512,-0.00682h-1.09261z" data-paper-data="{&quot;glyphName&quot;:&quot;Y&quot;,&quot;glyphIndex&quot;:8,&quot;lastGlyphOfWord&quot;:true,&quot;word&quot;:2}" id="element-id-45345" style="scrollbar-width: thin;"></path><path d="M213.5268,306.44127h-2.6765c-1.37663,0 -2.49739,1.12075 -2.49739,2.49739c0,0.66699 0.26014,1.29475 0.73182,1.76642c0.47167,0.47082 1.09858,0.73096 1.76557,0.73096l2.67565,-0.00085c0.88876,0 1.61204,0.72329 1.61204,1.61204c0,0.88876 -0.72329,1.61204 -1.61204,1.61204l-2.67565,0.00085c-0.88876,0 -1.61204,-0.72329 -1.61204,-1.61204v-0.00426h-0.88534v0.00426c0,0.66699 0.26014,1.2939 0.73182,1.76557c0.47167,0.47167 1.09858,0.73096 1.76557,0.73096h2.6765c0.66699,0 1.29475,-0.26014 1.76557,-0.73096c0.47252,-0.47167 0.73182,-1.09943 0.73182,-1.76642c0,-0.66699 -0.25929,-1.2939 -0.73182,-1.76557c-0.47167,-0.47167 -1.09858,-0.73096 -1.76557,-0.73096l-2.6765,0.00085c-0.88876,0 -1.61204,-0.7232 -1.61204,-1.6129c0,-0.88876 0.72329,-1.61204 1.61204,-1.61204l2.67565,-0.00085c0.88876,0 1.61204,0.72329 1.61204,1.6129v0.00426h0.8862v-0.00426c0,-0.66699 -0.25929,-1.29475 -0.73182,-1.76642c-0.47082,-0.47082 -1.09858,-0.73096 -1.76557,-0.73096z" data-paper-data="{&quot;glyphName&quot;:&quot;S&quot;,&quot;glyphIndex&quot;:9,&quot;firstGlyphOfWord&quot;:true,&quot;word&quot;:3}" id="element-id-37706" style="scrollbar-width: thin;"></path><path d="M220.59134,315.54451v-9.10326h-0.88541v9.10326z" data-paper-data="{&quot;glyphName&quot;:&quot;I&quot;,&quot;glyphIndex&quot;:10,&quot;word&quot;:3}" id="element-id-84584" style="scrollbar-width: thin;"></path><path d="M230.92907,314.31554l-5.69503,-7.87257l-0.00085,-0.00171h-1.09005v9.10326h0.00426v0.00094h0.88108v-7.87683l2.40697,3.32644l3.28976,4.54784l0.00085,0.00162h0.20641v0.00094h0.88193v-9.1042h-0.88534z" data-paper-data="{&quot;glyphName&quot;:&quot;N&quot;,&quot;glyphIndex&quot;:11,&quot;word&quot;:3}" id="element-id-39419" style="scrollbar-width: thin;"></path><path d="M242.51118,308.40045l0.00341,0.00256l0.36847,-0.36847l0.25417,-0.25332l0.00256,-0.00341l-0.00256,-0.00341c-0.435,-0.43414 -0.94164,-0.77105 -1.50628,-0.99964c-0.54502,-0.22176 -1.12161,-0.3335 -1.71269,-0.3335c-0.59108,0 -1.16766,0.11173 -1.71354,0.3335c-0.56464,0.22859 -1.07128,0.56549 -1.50543,0.99964c-0.435,0.435 -0.77105,0.94078 -0.99964,1.50543c-0.22091,0.54588 -0.3335,1.12161 -0.3335,1.71269c0,0.59108 0.11259,1.16766 0.3335,1.71269c0.22944,0.56464 0.56549,1.07137 0.99964,1.50543c0.36932,0.36932 0.79237,0.6687 1.25893,0.89131c0.4512,0.21494 0.93226,0.35397 1.43122,0.41197c0.49385,0.05715 0.99025,0.03412 1.47557,-0.06823c0.49129,-0.10406 0.9587,-0.28744 1.38772,-0.54417v0.64396h0.88108l0.00426,-0.00085v-4.99392h-0.88534v3.26929c-0.36505,0.30194 -0.77105,0.52285 -1.19496,0.66273c-0.73096,0.23797 -1.52078,0.24053 -2.25259,0.00853c-0.01109,-0.00341 -0.02303,-0.00682 -0.03412,-0.01024c-0.00512,-0.00171 -0.01024,-0.00341 -0.01621,-0.00512c-0.52199,-0.17656 -1.01328,-0.47338 -1.42951,-0.89046c-1.42951,-1.42951 -1.42951,-3.75546 0,-5.18498c1.42951,-1.42951 3.75631,-1.43037 5.18583,0zM240.80702,314.91344c-0.60899,0.13988 -1.24016,0.1322 -1.84233,-0.01535c0.60473,0.1467 1.2359,0.15259 1.84233,0.01535z" data-paper-data="{&quot;glyphName&quot;:&quot;G&quot;,&quot;glyphIndex&quot;:12,&quot;word&quot;:3}" id="element-id-58420" style="scrollbar-width: thin;"></path><path d="M247.56468,306.44127h-0.88449v9.1042h7.66616l0.00426,-0.00094v-0.88441h-6.78593z" data-paper-data="{&quot;glyphName&quot;:&quot;L&quot;,&quot;glyphIndex&quot;:13,&quot;word&quot;:3}" id="element-id-72988" style="scrollbar-width: thin;"></path><path d="M257.89021,315.54547h7.67127v-0.88534h-6.78593v-3.22408h4.76107v-0.88534h-4.76107v-3.22494h6.78593v-0.88449h-7.67127z" data-paper-data="{&quot;glyphName&quot;:&quot;E&quot;,&quot;glyphIndex&quot;:14,&quot;lastGlyphOfWord&quot;:true,&quot;word&quot;:3}" id="element-id-94191" style="scrollbar-width: thin;"></path><path d="M281.49326,306.44127h-2.6765c-1.37663,0 -2.49739,1.12075 -2.49739,2.49739c0,0.66699 0.26014,1.29475 0.73182,1.76642c0.47167,0.47082 1.09858,0.73096 1.76557,0.73096l2.67565,-0.00085c0.88876,0 1.61204,0.72329 1.61204,1.61204c0,0.88876 -0.72329,1.61204 -1.61204,1.61204l-2.67565,0.00085c-0.88876,0 -1.61204,-0.72329 -1.61204,-1.61204v-0.00426h-0.88534v0.00426c0,0.66699 0.26014,1.2939 0.73182,1.76557c0.47167,0.47167 1.09858,0.73096 1.76557,0.73096h2.6765c0.66699,0 1.29475,-0.26014 1.76557,-0.73096c0.47252,-0.47167 0.73182,-1.09943 0.73182,-1.76642c0,-0.66699 -0.25929,-1.2939 -0.73182,-1.76557c-0.47167,-0.47167 -1.09858,-0.73096 -1.76557,-0.73096l-2.6765,0.00085c-0.88876,0 -1.61204,-0.7232 -1.61204,-1.6129c0,-0.88876 0.72329,-1.61204 1.61204,-1.61204l2.67565,-0.00085c0.88876,0 1.61204,0.72329 1.61204,1.6129v0.00426h0.8862v-0.00426c0,-0.66699 -0.25929,-1.29475 -0.73182,-1.76642c-0.47082,-0.47082 -1.09858,-0.73096 -1.76557,-0.73096z" data-paper-data="{&quot;glyphName&quot;:&quot;S&quot;,&quot;glyphIndex&quot;:15,&quot;firstGlyphOfWord&quot;:true,&quot;word&quot;:4}" id="element-id-36447" style="scrollbar-width: thin;"></path><path d="M295.11761,314.21233l0.00341,-0.00341l-0.62349,-0.62264l-0.00256,-0.00341l-0.00341,0.00341c-0.69258,0.69258 -1.6129,1.07384 -2.59291,1.07384c-0.97917,0 -1.90033,-0.38126 -2.59291,-1.07384c-0.69258,-0.69258 -1.07384,-1.61375 -1.07384,-2.59291c0,-0.97917 0.38126,-1.90033 1.07384,-2.59291c0.69258,-0.69258 1.61375,-1.07384 2.59377,-1.07384c0.48958,0 0.96467,0.09553 1.40393,0.2772c0.43926,0.18167 0.8427,0.45035 1.18899,0.79579l0.00256,0.00341l0.62264,-0.62264l0.00341,-0.00256l-0.00341,-0.00341c-0.43414,-0.43414 -0.94164,-0.77105 -1.50628,-0.99964c-0.54502,-0.22176 -1.12161,-0.3335 -1.71269,-0.3335c-0.59108,0 -1.16766,0.11173 -1.71269,0.3335c-0.56464,0.22859 -1.07128,0.56549 -1.50628,0.99964c-0.43414,0.43414 -0.7702,0.94078 -0.99964,1.50543c-0.22091,0.54588 -0.33264,1.12161 -0.33264,1.71269c0,0.59108 0.11173,1.16766 0.3335,1.71269c0.22859,0.56464 0.56549,1.07214 0.99964,1.50628c0.43414,0.43414 0.94078,0.77105 1.50543,0.99964c0.54588,0.22091 1.12161,0.3335 1.71269,0.3335c0.00085,0 0.00085,0 0.00085,0c0.59108,0 1.16766,-0.11173 1.71269,-0.33264c0.56464,-0.22944 1.07128,-0.56549 1.50543,-0.99964z" data-paper-data="{&quot;glyphName&quot;:&quot;C&quot;,&quot;glyphIndex&quot;:16,&quot;word&quot;:4}" id="element-id-31697" style="scrollbar-width: thin;"></path><path d="M305.95784,311.54692c0.37358,-0.54417 0.57146,-1.18216 0.57146,-1.84489c0,-0.87084 -0.33947,-1.68966 -0.95528,-2.30548c-0.61582,-0.61582 -1.43463,-0.95528 -2.30548,-0.95528h-4.41213v9.1042h0.88108l0.00426,-0.00085v-2.58097h3.52688c0.10406,0 0.20044,-0.00426 0.29597,-0.01365l1.8756,2.59291l0.00085,0.00171h1.09261l-2.03936,-2.81979c0.59356,-0.24053 1.09934,-0.64738 1.46355,-1.1779zM303.57645,312.05783c-0.06738,0.00938 -0.13732,0.01535 -0.20641,0.01791c-0.03412,0.00171 -0.06738,0.00256 -0.1015,0.00256h-3.52688v-4.75169h3.52688c1.3101,0 2.37542,1.06531 2.37542,2.37542c0,1.04228 -0.69599,1.9788 -1.69307,2.27648c-0.12112,0.03668 -0.2465,0.06312 -0.37444,0.07932z" data-paper-data="{&quot;glyphName&quot;:&quot;R&quot;,&quot;glyphIndex&quot;:17,&quot;word&quot;:4}" id="element-id-41673" style="scrollbar-width: thin;"></path><path d="M317.84965,307.7744c-0.41794,-0.41794 -0.90496,-0.74632 -1.44657,-0.97575c-0.56123,-0.23712 -1.15743,-0.35738 -1.77154,-0.35738c-0.61496,0 -1.21116,0.12026 -1.77239,0.35729c-0.54161,0.22944 -1.02864,0.55782 -1.44657,0.97575c-0.41794,0.41794 -0.74632,0.90496 -0.97575,1.44657c-0.23712,0.56208 -0.35738,1.15743 -0.35738,1.77239c0,0.61411 0.12026,1.21031 0.35738,1.77154c0.22944,0.54161 0.55782,1.02864 0.97575,1.44657c0.41794,0.41794 0.90496,0.74632 1.44657,0.97575c0.56123,0.23712 1.15743,0.35738 1.77239,0.35738c0.61411,0 1.21031,-0.12026 1.77154,-0.35738c0.54161,-0.22944 1.02864,-0.55782 1.44657,-0.97575c0.41794,-0.41794 0.74632,-0.90496 0.97575,-1.44657c0.23797,-0.56123 0.35823,-1.15743 0.35823,-1.77154c0,-0.61496 -0.12026,-1.21031 -0.35823,-1.77239c-0.22944,-0.54153 -0.55782,-1.02855 -0.97575,-1.44649zM314.63153,314.66012c-2.0223,0 -3.66676,-1.64531 -3.66676,-3.66676c0,-2.0223 1.64445,-3.66761 3.66676,-3.66761c2.02145,0 3.66676,1.64531 3.66676,3.66761c0,2.02145 -1.64531,3.66676 -3.66676,3.66676z" data-paper-data="{&quot;glyphName&quot;:&quot;O&quot;,&quot;glyphIndex&quot;:18,&quot;word&quot;:4}" id="element-id-28120" style="scrollbar-width: thin;"></path><path d="M323.61691,306.44127h-0.88449v9.1042h7.66616l0.00426,-0.00094v-0.88441h-6.78593z" data-paper-data="{&quot;glyphName&quot;:&quot;L&quot;,&quot;glyphIndex&quot;:19,&quot;word&quot;:4}" id="element-id-56403" style="scrollbar-width: thin;"></path><path d="M334.82693,306.44127h-0.88449v9.1042h7.66616l0.00426,-0.00094v-0.88441h-6.78593z" data-paper-data="{&quot;glyphName&quot;:&quot;L&quot;,&quot;glyphIndex&quot;:20,&quot;word&quot;:4}" id="element-id-99072" style="scrollbar-width: thin;"></path><path d="M352.82459,313.04808c0,-0.82137 -0.40258,-1.58816 -1.07811,-2.05471c0.67552,-0.46655 1.07811,-1.23419 1.07811,-2.05471c0,-0.66699 -0.26014,-1.29475 -0.73182,-1.76642c-0.47167,-0.47167 -1.09858,-0.73096 -1.76557,-0.73096h-5.17474v9.1042h5.17474c1.37663,0 2.49739,-1.12075 2.49739,-2.49739zM346.03781,307.32576h4.2894c0.88876,0 1.61204,0.72329 1.61204,1.6129c0,0.88876 -0.72329,1.61204 -1.61204,1.61204h-4.2894zM350.32721,314.66012h-4.2894v-3.22408h4.2894c0.00597,0 0.01194,0 0.01791,-0.00085c0.87937,0.00938 1.59413,0.73267 1.59413,1.6129c0,0.88876 -0.72329,1.61204 -1.61204,1.61204z" data-paper-data="{&quot;glyphName&quot;:&quot;B&quot;,&quot;glyphIndex&quot;:21,&quot;word&quot;:4}" id="element-id-21334" style="scrollbar-width: thin;"></path><path d="M357.32043,313.78422h4.48137l0.64998,1.75781l0.00169,0.0026h0.94325l-0.65245,-1.76639l-0.12961,-0.34891l-2.58186,-6.9812l-0.00338,-0.00689h-0.93649l-2.39076,6.46095l-0.12883,0.34891l-0.19538,0.52714l-0.65076,1.76041l-0.00169,0.00585h0.94338zM359.56118,307.72574l1.91394,5.17399h-3.828z" data-paper-data="{&quot;glyphName&quot;:&quot;A&quot;,&quot;glyphIndex&quot;:22,&quot;word&quot;:4}" id="element-id-8525" style="scrollbar-width: thin;"></path><path d="M374.03696,311.54692c0.37358,-0.54417 0.57146,-1.18216 0.57146,-1.84489c0,-0.87084 -0.33947,-1.68966 -0.95528,-2.30548c-0.61582,-0.61582 -1.43463,-0.95528 -2.30548,-0.95528h-4.41213v9.1042h0.88108l0.00426,-0.00085v-2.58097h3.52688c0.10406,0 0.20044,-0.00426 0.29597,-0.01365l1.8756,2.59291l0.00085,0.00171h1.09261l-2.03936,-2.81979c0.59356,-0.24053 1.09934,-0.64738 1.46355,-1.1779zM371.65557,312.05783c-0.06738,0.00938 -0.13732,0.01535 -0.20641,0.01791c-0.03412,0.00171 -0.06738,0.00256 -0.1015,0.00256h-3.52688v-4.75169h3.52688c1.3101,0 2.37542,1.06531 2.37542,2.37542c0,1.04228 -0.69599,1.9788 -1.69307,2.27648c-0.12112,0.03668 -0.2465,0.06312 -0.37444,0.07932z" data-paper-data="{&quot;glyphName&quot;:&quot;R&quot;,&quot;glyphIndex&quot;:23,&quot;word&quot;:4}" id="element-id-86765" style="scrollbar-width: thin;"></path><path d="M383.33244,306.44127h-2.6765c-1.37663,0 -2.49739,1.12075 -2.49739,2.49739c0,0.66699 0.26014,1.29475 0.73182,1.76642c0.47167,0.47082 1.09858,0.73096 1.76557,0.73096l2.67565,-0.00085c0.88876,0 1.61204,0.72329 1.61204,1.61204c0,0.88876 -0.72329,1.61204 -1.61204,1.61204l-2.67565,0.00085c-0.88876,0 -1.61204,-0.72329 -1.61204,-1.61204v-0.00426h-0.88534v0.00426c0,0.66699 0.26014,1.2939 0.73182,1.76557c0.47167,0.47167 1.09858,0.73096 1.76557,0.73096h2.6765c0.66699,0 1.29475,-0.26014 1.76557,-0.73096c0.47252,-0.47167 0.73182,-1.09943 0.73182,-1.76642c0,-0.66699 -0.25929,-1.2939 -0.73182,-1.76557c-0.47167,-0.47167 -1.09858,-0.73096 -1.76557,-0.73096l-2.6765,0.00085c-0.88876,0 -1.61204,-0.7232 -1.61204,-1.6129c0,-0.88876 0.72329,-1.61204 1.61204,-1.61204l2.67565,-0.00085c0.88876,0 1.61204,0.72329 1.61204,1.6129v0.00426h0.8862v-0.00426c0,-0.66699 -0.25929,-1.29475 -0.73182,-1.76642c-0.47082,-0.47082 -1.09858,-0.73096 -1.76557,-0.73096z" data-paper-data="{&quot;glyphName&quot;:&quot;S&quot;,&quot;glyphIndex&quot;:24,&quot;lastGlyphOfWord&quot;:true,&quot;word&quot;:4}" id="element-id-15421" style="scrollbar-width: thin;"></path><path d="M396.58771,315.54547h7.67127v-0.88534h-6.78593v-3.22408h4.76107v-0.88534h-4.76107v-3.22494h6.78593v-0.88449h-7.67127z" data-paper-data="{&quot;glyphName&quot;:&quot;E&quot;,&quot;glyphIndex&quot;:25,&quot;firstGlyphOfWord&quot;:true,&quot;word&quot;:5}" id="element-id-73770" style="scrollbar-width: thin;"></path><path d="M408.69522,306.44127h-0.88449v9.1042h7.66616l0.00426,-0.00094v-0.88441h-6.78593z" data-paper-data="{&quot;glyphName&quot;:&quot;L&quot;,&quot;glyphIndex&quot;:26,&quot;word&quot;:5}" id="element-id-9692" style="scrollbar-width: thin;"></path><path d="M419.02076,315.54547h7.67127v-0.88534h-6.78593v-3.22408h4.76107v-0.88534h-4.76107v-3.22494h6.78593v-0.88449h-7.67127z" data-paper-data="{&quot;glyphName&quot;:&quot;E&quot;,&quot;glyphIndex&quot;:27,&quot;word&quot;:5}" id="element-id-67652" style="scrollbar-width: thin;"></path><path d="M435.95883,308.40045l0.00341,0.00256l0.36847,-0.36847l0.25417,-0.25332l0.00256,-0.00341l-0.00256,-0.00341c-0.435,-0.43414 -0.94164,-0.77105 -1.50628,-0.99964c-0.54502,-0.22176 -1.12161,-0.3335 -1.71269,-0.3335c-0.59108,0 -1.16766,0.11173 -1.71354,0.3335c-0.56464,0.22859 -1.07128,0.56549 -1.50543,0.99964c-0.435,0.435 -0.77105,0.94078 -0.99964,1.50543c-0.22091,0.54588 -0.3335,1.12161 -0.3335,1.71269c0,0.59108 0.11259,1.16766 0.3335,1.71269c0.22944,0.56464 0.56549,1.07137 0.99964,1.50543c0.36932,0.36932 0.79237,0.6687 1.25893,0.89131c0.4512,0.21494 0.93226,0.35397 1.43122,0.41197c0.49385,0.05715 0.99025,0.03412 1.47557,-0.06823c0.49129,-0.10406 0.9587,-0.28744 1.38772,-0.54417v0.64396h0.88108l0.00426,-0.00085v-4.99392h-0.88534v3.26929c-0.36505,0.30194 -0.77105,0.52285 -1.19496,0.66273c-0.73096,0.23797 -1.52078,0.24053 -2.25259,0.00853c-0.01109,-0.00341 -0.02303,-0.00682 -0.03412,-0.01024c-0.00512,-0.00171 -0.01024,-0.00341 -0.01621,-0.00512c-0.52199,-0.17656 -1.01328,-0.47338 -1.42951,-0.89046c-1.42951,-1.42951 -1.42951,-3.75546 0,-5.18498c1.42951,-1.42951 3.75631,-1.43037 5.18583,0zM434.25467,314.91344c-0.60899,0.13988 -1.24016,0.1322 -1.84233,-0.01535c0.60473,0.1467 1.2359,0.15259 1.84233,0.01535z" data-paper-data="{&quot;glyphName&quot;:&quot;G&quot;,&quot;glyphIndex&quot;:28,&quot;word&quot;:5}" id="element-id-2268" style="scrollbar-width: thin;"></path><path d="M441.72276,313.78422h4.48137l0.64998,1.75781l0.00169,0.0026h0.94325l-0.65245,-1.76639l-0.12961,-0.34891l-2.58186,-6.9812l-0.00338,-0.00689h-0.93649l-2.39076,6.46095l-0.12883,0.34891l-0.19538,0.52714l-0.65076,1.76041l-0.00169,0.00585h0.94338zM443.96351,307.72574l1.91394,5.17399h-3.828z" data-paper-data="{&quot;glyphName&quot;:&quot;A&quot;,&quot;glyphIndex&quot;:29,&quot;word&quot;:5}" id="element-id-54262" style="scrollbar-width: thin;"></path><path d="M458.12379,314.31554l-5.69503,-7.87257l-0.00085,-0.00171h-1.09005v9.10326h0.00426v0.00094h0.88108v-7.87683l2.40697,3.32644l3.28976,4.54784l0.00085,0.00162h0.20641v0.00094h0.88193v-9.1042h-0.88534z" data-paper-data="{&quot;glyphName&quot;:&quot;N&quot;,&quot;glyphIndex&quot;:30,&quot;word&quot;:5}" id="element-id-70161" style="scrollbar-width: thin;"></path><path d="M462.56088,307.32576h3.39296v8.21971h0.88534v-8.21971h3.39296v-0.88449h-7.67127z" data-paper-data="{&quot;glyphName&quot;:&quot;T&quot;,&quot;glyphIndex&quot;:31,&quot;word&quot;:5}" id="element-id-92122" style="scrollbar-width: thin;"></path><path d="M474.22654,314.66014c-0.24387,0 -0.44264,0.19863 -0.44264,0.44264c0,0.24387 0.19876,0.44186 0.44264,0.44186c0.244,0 0.44277,-0.19798 0.44277,-0.44186c0,-0.244 -0.19876,-0.44264 -0.44277,-0.44264z" data-paper-data="{&quot;glyphName&quot;:&quot;.&quot;,&quot;glyphIndex&quot;:32,&quot;lastGlyphOfWord&quot;:true,&quot;word&quot;:5}" id="element-id-2450" style="scrollbar-width: thin;"></path></g><g data-paper-data="{&quot;isPrimaryText&quot;:true}" id="element-id-28627" style="scrollbar-width: thin;"><path d="M124.19101,154.45463v10.21607h-21.2105v123.66304h-10.21607v-123.66304h-21.2105v-10.21607z" data-paper-data="{&quot;glyphName&quot;:&quot;T&quot;,&quot;glyphIndex&quot;:0,&quot;firstGlyphOfWord&quot;:true,&quot;word&quot;:1}" fill-rule="nonzero" id="element-id-23119" style="scrollbar-width: thin;"></path><path d="M190.44949,154.45463v133.87911h-10.21607v-35.3184h-32.20493v35.3184h-10.21607v-133.87911h10.21607v88.34464h32.20493v-88.34464z" data-paper-data="{&quot;glyphName&quot;:&quot;H&quot;,&quot;glyphIndex&quot;:1,&quot;word&quot;:1}" fill-rule="nonzero" id="element-id-81317" style="scrollbar-width: thin;"></path><path d="M204.07091,154.45463h10.21607v133.87911h-10.21607z" data-paper-data="{&quot;glyphName&quot;:&quot;I&quot;,&quot;glyphIndex&quot;:2,&quot;word&quot;:1}" fill-rule="nonzero" id="element-id-25751" style="scrollbar-width: thin;"></path><path d="M254.17828,154.45463c7.32962,0 13.55656,2.56212 18.68081,7.68637c5.12425,5.12425 7.68637,11.31875 7.68637,18.58351v107.60922h-10.21607v-107.60922c0,-4.41075 -1.58917,-8.17285 -4.7675,-11.28632c-3.11347,-3.17833 -6.90801,-4.7675 -11.38362,-4.7675c-4.41075,0 -8.17285,1.58917 -11.28632,4.7675c-3.17833,3.11347 -4.7675,6.87557 -4.7675,11.28632v107.60922h-10.21607v-107.60922c0,-7.26476 2.56212,-13.45926 7.68637,-18.58351c5.12425,-5.12425 11.31875,-7.68637 18.58351,-7.68637z" data-paper-data="{&quot;glyphName&quot;:&quot;N&quot;,&quot;glyphIndex&quot;:3,&quot;word&quot;:1}" fill-rule="nonzero" id="element-id-71758" style="scrollbar-width: thin;"></path><path d="M320.43676,154.45463c7.32962,0 13.55656,2.56212 18.68081,7.68637c5.12425,5.12425 7.68637,11.31875 7.68637,18.58351v107.60922h-10.21607v-107.60922c0,-4.41075 -1.58917,-8.17285 -4.7675,-11.28632c-3.11347,-3.17833 -6.90801,-4.7675 -11.38362,-4.7675c-4.41075,0 -8.17285,1.58917 -11.28632,4.7675c-3.17833,3.11347 -4.7675,6.87557 -4.7675,11.28632v107.60922h-10.21607v-107.60922c0,-7.26476 2.56212,-13.45926 7.68637,-18.58351c5.12425,-5.12425 11.31875,-7.68637 18.58351,-7.68637z" data-paper-data="{&quot;glyphName&quot;:&quot;N&quot;,&quot;glyphIndex&quot;:4,&quot;word&quot;:1}" fill-rule="nonzero" id="element-id-90244" style="scrollbar-width: thin;"></path><path d="M402.45718,154.45463v10.21607h-31.81575v78.12858h14.1079v10.21607h-14.1079v25.10233h31.81575v10.21607h-42.03181v-133.87911z" data-paper-data="{&quot;glyphName&quot;:&quot;E&quot;,&quot;glyphIndex&quot;:5,&quot;word&quot;:1}" fill-rule="nonzero" id="element-id-27612" style="scrollbar-width: thin;"></path><g data-paper-data="{&quot;isIcon&quot;:&quot;true&quot;,&quot;iconType&quot;:&quot;icon&quot;,&quot;rawIconId&quot;:&quot;1689689&quot;,&quot;selectedEffects&quot;:{&quot;container&quot;:&quot;&quot;,&quot;transformation&quot;:&quot;&quot;,&quot;pattern&quot;:&quot;&quot;},&quot;isDetailed&quot;:false,&quot;fillRule&quot;:&quot;evenodd&quot;,&quot;bounds&quot;:{&quot;x&quot;:413.45021998602687,&quot;y&quot;:154.45453295027733,&quot;width&quot;:64.99583159076468,&quot;height&quot;:133.87910670035313},&quot;iconStyle&quot;:&quot;icon-in-text&quot;,&quot;suitableAsStandaloneIcon&quot;:true}" fill-rule="evenodd" id="element-id-36987" style="scrollbar-width: thin;"><path d="M457.03592,245.9897c6.22115,-4.59698 11.05535,-9.78548 14.50262,-15.56553l0.01205,-0.01946c4.59698,-7.79404 6.89546,-16.28186 6.89546,-25.46345c0,-13.57285 -4.75328,-25.27873 -14.25983,-35.11765c-9.26314,-9.45775 -19.84125,-14.53382 -31.73433,-15.22821c-0.37685,-0.0939 -0.75957,-0.14086 -1.14816,-0.14086h-13.10796c-0.07784,0 -0.15537,0.00185 -0.2326,0.00556c-0.07784,0.00371 -0.15537,0.00927 -0.2326,0.01668c-0.07722,0.00803 -0.15414,0.01761 -0.23074,0.02873c-0.07722,0.01174 -0.15383,0.02502 -0.22982,0.03985c-0.07599,0.01544 -0.15167,0.03243 -0.22704,0.05097c-0.07537,0.01915 -0.15043,0.03985 -0.22518,0.06209c-0.07413,0.02286 -0.14765,0.04726 -0.22055,0.07321c-0.07352,0.02595 -0.14611,0.05375 -0.21777,0.0834c-0.07166,0.03027 -0.14271,0.06178 -0.21314,0.09452c-0.06981,0.03336 -0.139,0.06827 -0.20758,0.10472c-0.06857,0.03707 -0.13622,0.07537 -0.20294,0.11491c-0.06672,0.04016 -0.13221,0.08186 -0.19646,0.1251c-0.06487,0.04325 -0.1285,0.08773 -0.1909,0.13344c-0.0624,0.04633 -0.12356,0.09421 -0.18348,0.14364c-0.05993,0.04942 -0.11862,0.10008 -0.17607,0.15198c-0.05745,0.05251 -0.11367,0.10626 -0.16866,0.16124c-0.05498,0.05498 -0.10873,0.1112 -0.16124,0.16866c-0.05189,0.05745 -0.10255,0.11614 -0.15198,0.17607c-0.04942,0.05993 -0.0973,0.12109 -0.14364,0.18348c-0.04572,0.0624 -0.0902,0.12603 -0.13344,0.1909c-0.04325,0.06425 -0.08495,0.12974 -0.1251,0.19646c-0.03954,0.06672 -0.07784,0.13437 -0.11491,0.20294c-0.03645,0.06857 -0.07135,0.13777 -0.10472,0.20758c-0.03274,0.07043 -0.06425,0.14147 -0.09452,0.21314c-0.02965,0.07166 -0.05745,0.14425 -0.0834,0.21777c-0.02595,0.0729 -0.05035,0.14642 -0.07321,0.22055c-0.02224,0.07475 -0.04294,0.14981 -0.06209,0.22518c-0.01853,0.07537 -0.03552,0.15105 -0.05097,0.22704c-0.01544,0.07599 -0.02873,0.15259 -0.03985,0.22982c-0.01112,0.07661 -0.0207,0.15352 -0.02873,0.23074c-0.00741,0.07722 -0.01297,0.15476 -0.01668,0.2326c-0.00371,0.07722 -0.00556,0.15476 -0.00556,0.2326v124.388c0,0.07784 0.00185,0.15537 0.00556,0.2326c0.00371,0.07784 0.00927,0.15537 0.01668,0.2326c0.00803,0.07722 0.01761,0.15414 0.02873,0.23074c0.01112,0.07722 0.0244,0.15383 0.03985,0.22982c0.01544,0.07599 0.03243,0.15167 0.05097,0.22704c0.01915,0.07537 0.03985,0.15043 0.06209,0.22518c0.02286,0.07413 0.04726,0.14765 0.07321,0.22055c0.02595,0.07352 0.05375,0.14611 0.0834,0.21777c0.03027,0.07166 0.06178,0.14271 0.09452,0.21314c0.03336,0.06981 0.06827,0.139 0.10472,0.20758c0.03707,0.06857 0.07537,0.13622 0.11491,0.20294c0.04016,0.06672 0.08186,0.13221 0.1251,0.19646c0.04325,0.06487 0.08773,0.1285 0.13344,0.1909c0.04633,0.0624 0.09421,0.12356 0.14364,0.18348c0.04942,0.05993 0.10008,0.11862 0.15198,0.17607c0.05251,0.05745 0.10626,0.11367 0.16124,0.16866c0.05498,0.05498 0.1112,0.10873 0.16866,0.16124c0.05745,0.05189 0.11614,0.10255 0.17607,0.15198c0.05993,0.04942 0.12109,0.0973 0.18348,0.14364c0.0624,0.04572 0.12603,0.0902 0.1909,0.13344c0.06425,0.04325 0.12974,0.08495 0.19646,0.1251c0.06672,0.03954 0.13437,0.07784 0.20294,0.11491c0.06857,0.03645 0.13777,0.07135 0.20758,0.10472c0.07043,0.03274 0.14147,0.06425 0.21314,0.09452c0.07166,0.02965 0.14425,0.05745 0.21777,0.0834c0.0729,0.02595 0.14642,0.05035 0.22055,0.07321c0.07475,0.02224 0.14981,0.04294 0.22518,0.06209c0.07537,0.01853 0.15105,0.03552 0.22704,0.05097c0.07599,0.01544 0.15259,0.02873 0.22982,0.03985c0.07661,0.01112 0.15352,0.0207 0.23074,0.02873c0.07722,0.00741 0.15476,0.01297 0.2326,0.01668c0.07722,0.00371 0.15476,0.00556 0.2326,0.00556h55.32402c0.07784,0 0.15537,-0.00185 0.2326,-0.00556c0.07784,-0.00371 0.15537,-0.00927 0.2326,-0.01668c0.07722,-0.00803 0.15414,-0.01761 0.23074,-0.02873c0.07722,-0.01112 0.15383,-0.0244 0.22982,-0.03985c0.07599,-0.01544 0.15167,-0.03243 0.22704,-0.05097c0.07537,-0.01915 0.15043,-0.03985 0.22518,-0.06209c0.07413,-0.02286 0.14765,-0.04726 0.22055,-0.07321c0.07352,-0.02595 0.14611,-0.05375 0.21777,-0.0834c0.07166,-0.03027 0.14271,-0.06178 0.21314,-0.09452c0.06981,-0.03336 0.139,-0.06827 0.20758,-0.10472c0.06857,-0.03707 0.13622,-0.07537 0.20294,-0.11491c0.06672,-0.04016 0.13221,-0.08186 0.19646,-0.1251c0.06487,-0.04325 0.1285,-0.08773 0.1909,-0.13344c0.0624,-0.04633 0.12356,-0.09421 0.18348,-0.14364c0.05993,-0.04942 0.11862,-0.10008 0.17607,-0.15198c0.05745,-0.05251 0.11367,-0.10626 0.16866,-0.16124c0.05498,-0.05498 0.10873,-0.1112 0.16124,-0.16866c0.05189,-0.05745 0.10255,-0.11614 0.15198,-0.17607c0.04942,-0.05993 0.0973,-0.12109 0.14364,-0.18348c0.04572,-0.0624 0.0902,-0.12603 0.13344,-0.1909c0.04325,-0.06425 0.08495,-0.12974 0.1251,-0.19646c0.03954,-0.06672 0.07784,-0.13437 0.11491,-0.20294c0.03645,-0.06857 0.07135,-0.13777 0.10472,-0.20758c0.03274,-0.07043 0.06425,-0.14147 0.09452,-0.21314c0.02965,-0.07166 0.05745,-0.14425 0.0834,-0.21777c0.02595,-0.0729 0.05035,-0.14642 0.07321,-0.22055c0.02224,-0.07475 0.04294,-0.14981 0.06209,-0.22518c0.01853,-0.07537 0.03552,-0.15105 0.05097,-0.22704c0.01544,-0.07599 0.02873,-0.15259 0.03985,-0.22982c0.01112,-0.07661 0.0207,-0.15352 0.02873,-0.23074c0.00741,-0.07722 0.01297,-0.15476 0.01668,-0.2326c0.00371,-0.07722 0.00556,-0.15476 0.00556,-0.2326c0,-0.04263 -0.00031,-0.08526 -0.00093,-0.12788c-0.20387,-7.53333 -2.60491,-15.06481 -7.20312,-22.59443c-3.3719,-5.48598 -8.04702,-10.44467 -14.02538,-14.87607zM430.37983,163.94564c0.24526,0.04881 0.49269,0.07815 0.74227,0.08804c9.77035,0.37376 18.5164,4.50245 26.23816,12.38607c7.72979,7.99976 11.59468,17.50693 11.59468,28.52151c0,7.44684 -1.85615,14.32068 -5.56845,20.62152c-0.00371,0.00618 -0.00741,0.01266 -0.01112,0.01946c-3.68944,6.17605 -9.46732,11.61878 -17.33364,16.32819c-0.33361,0.20016 -0.63849,0.4377 -0.91464,0.71262c-0.27553,0.27492 -0.51369,0.57918 -0.71447,0.91278c-0.03954,0.06672 -0.07784,0.13437 -0.11491,0.20294c-0.03645,0.06796 -0.07135,0.13715 -0.10472,0.20758c-0.03336,0.07043 -0.06487,0.14147 -0.09452,0.21314c-0.03027,0.07166 -0.05838,0.14395 -0.08433,0.21684c-0.02656,0.0729 -0.05097,0.14673 -0.07321,0.22148c-0.02286,0.07413 -0.04386,0.14889 -0.06301,0.22426c-0.01915,0.07537 -0.03614,0.15105 -0.05097,0.22704c-0.01544,0.07599 -0.02904,0.15259 -0.04077,0.22982c-0.01112,0.07661 -0.0207,0.15352 -0.02873,0.23074c-0.00741,0.07722 -0.01328,0.15476 -0.01761,0.2326c-0.00371,0.07722 -0.00556,0.15476 -0.00556,0.2326c-0.00062,0.07784 0.00093,0.15537 0.00463,0.2326c0.00371,0.07784 0.00927,0.15537 0.01668,0.2326c0.00803,0.07722 0.01761,0.15414 0.02873,0.23074c0.01112,0.07722 0.02409,0.15383 0.03892,0.22982c0.01544,0.07661 0.03243,0.15259 0.05097,0.22796c0.01915,0.07537 0.03985,0.15012 0.06209,0.22426c0.02224,0.07413 0.04633,0.14796 0.07228,0.22148c0.02595,0.0729 0.05375,0.14518 0.0834,0.21684c0.02965,0.07228 0.06116,0.14333 0.09452,0.21314c0.03274,0.07043 0.06765,0.13993 0.10472,0.2085c0.03645,0.06857 0.07444,0.13622 0.11398,0.20294c0.04016,0.06672 0.08155,0.13252 0.12418,0.19738c0.04325,0.06425 0.08804,0.12757 0.13437,0.18997c0.04572,0.0624 0.09329,0.12387 0.14271,0.18441c0.04942,0.05993 0.10008,0.11862 0.15198,0.17607c0.05189,0.05807 0.10533,0.1146 0.16032,0.16958c0.05498,0.05498 0.1112,0.10842 0.16866,0.16032c0.05745,0.05251 0.11614,0.10348 0.17607,0.1529c0.05993,0.04942 0.12109,0.0973 0.18348,0.14364c0.0624,0.04633 0.12572,0.09112 0.18997,0.13437c0.06425,0.04325 0.12974,0.08495 0.19646,0.1251c7.65627,4.60501 13.29855,9.85931 16.92683,15.76291c2.69171,4.40731 4.45056,8.75069 5.27654,13.03012h-45.29544v-114.89689z" id="element-id-4304" style="scrollbar-width: thin;"></path><path d="M440.37668,199.74866v20.23743h-0.05828l-15.15471,-15.15519l20.99945,-20.99945l20.99945,20.99945l-15.15519,15.15519h-0.0578v-20.23743h-2.14253v20.23743h-2.57219v-24.64628h-2.14349v24.64628h-2.57171v-20.23743z" data-paper-data="{&quot;isPathIcon&quot;:true}" id="element-id-83180" style="scrollbar-width: thin;"></path></g></g></g></g><g class="watermark-group" style="opacity: 0.04; scrollbar-width: thin;"><path class="watermark-path" d="M129.52,370.3a11.88,11.88,0,0,1,2.58,5.58,12,12,0,0,1,.11,3,11.81,11.81,0,0,1-.64,2.93,12.34,12.34,0,0,1-1.41,2.72,11.65,11.65,0,0,1-2.13,2.32,12,12,0,0,1-2.64,1.69,13,13,0,0,1-2.91.9,12.47,12.47,0,0,1-3,.12,12.17,12.17,0,0,1-2.93-.64,11.8,11.8,0,0,1-2.72-1.38,12.19,12.19,0,0,1-4-4.79,11.85,11.85,0,0,1-.89-2.92,12.14,12.14,0,0,1-.13-3,11.54,11.54,0,0,1,.64-2.92,11.67,11.67,0,0,1,3.5-5,11.44,11.44,0,0,1,2.67-1.69,11.64,11.64,0,0,1,2.92-.91,10.71,10.71,0,0,1,3-.12,11.68,11.68,0,0,1,5.66,2,11.7,11.7,0,0,1,2.34,2.12m-1.4,8.76a13,13,0,0,1-1.22,2.32,9.68,9.68,0,0,1-1.81,2,7.44,7.44,0,0,1-2.38,1.37,6.17,6.17,0,0,1-5.11-.46,8.73,8.73,0,0,1-3.85-4.58,6.69,6.69,0,0,1-.34-2.66,6.09,6.09,0,0,1,.77-2.47,7.15,7.15,0,0,1,1.75-2.11,9.58,9.58,0,0,1,1.09-.81,8.23,8.23,0,0,1,1.12-.63,8.14,8.14,0,0,1,1.19-.46,12.71,12.71,0,0,1,1.32-.37l2,2.38a12.83,12.83,0,0,0-1.56.17,7.86,7.86,0,0,0-1.23.32,4.5,4.5,0,0,0-1,.49,6.41,6.41,0,0,0-.93.67,4.49,4.49,0,0,0-1.15,1.39,3.87,3.87,0,0,0-.45,1.58,4.12,4.12,0,0,0,.26,1.63,6.11,6.11,0,0,0,2.36,2.82,4.43,4.43,0,0,0,1.57.53,3.91,3.91,0,0,0,1.62-.17,4.71,4.71,0,0,0,1.57-.89,10.5,10.5,0,0,0,.83-.79,5.71,5.71,0,0,0,.65-.93,10.13,10.13,0,0,0,.54-1.14,12.24,12.24,0,0,0,.44-1.49l2,2.33m-14.46,4.55a8.86,8.86,0,0,0,2.78,2.22,9,9,0,0,0,3.29.94,9.15,9.15,0,0,0,3.39-.37,8.68,8.68,0,0,0,3.11-1.69,8.8,8.8,0,0,0,2.22-2.78,9.15,9.15,0,0,0,1-3.29,8.95,8.95,0,0,0-4.83-8.76,9,9,0,0,0-6.73-.57,9,9,0,0,0-5.33,4.47,8.94,8.94,0,0,0-.57,6.71,8.76,8.76,0,0,0,1.7,3.12" style="scrollbar-width: thin;"></path><path class="watermark-path" d="M147,349c-.48.12-1.09.31-1.82.57a24.37,24.37,0,0,0-2.4,1A28.35,28.35,0,0,0,140,352a20.72,20.72,0,0,0-2.71,1.94c-.7.59-1.28,1.11-1.74,1.57a15.07,15.07,0,0,0-1.1,1.22,4.09,4.09,0,0,0-.59.92,2.32,2.32,0,0,0-.22.64,1.16,1.16,0,0,0,0,.47,1.83,1.83,0,0,0,.18.29,1.15,1.15,0,0,0,1,.37,5.54,5.54,0,0,0,1.51-.38q.87-.35,1.95-.9l2.26-1.18q1.2-.65,2.49-1.29c.87-.44,1.73-.83,2.59-1.17a18.94,18.94,0,0,1,2.6-.81,9.27,9.27,0,0,1,2.46-.29,6.25,6.25,0,0,1,2.24.49,5.12,5.12,0,0,1,1.89,1.47,6.35,6.35,0,0,1,1.41,2.61,6,6,0,0,1,.09,2.6,8.3,8.3,0,0,1-.9,2.52,17.79,17.79,0,0,1-1.62,2.37,23.92,23.92,0,0,1-2,2.15c-.72.67-1.41,1.29-2.09,1.87a33.79,33.79,0,0,1-5.33,3.7,32.29,32.29,0,0,1-4.91,2.28l-3.61-4.3a21.38,21.38,0,0,0,5.39-1.87,27.2,27.2,0,0,0,5.4-3.56,21.59,21.59,0,0,0,2.38-2.27,8.67,8.67,0,0,0,1.18-1.7,2.32,2.32,0,0,0,.27-1.19,1.34,1.34,0,0,0-.28-.74,1.21,1.21,0,0,0-1-.42,4.32,4.32,0,0,0-1.55.34,15.77,15.77,0,0,0-2,.88c-.72.37-1.48.77-2.27,1.21l-2.45,1.3c-.85.45-1.7.85-2.56,1.21a22.37,22.37,0,0,1-2.54.86,10,10,0,0,1-2.43.32,5.76,5.76,0,0,1-2.2-.45,5,5,0,0,1-1.89-1.45,6.12,6.12,0,0,1-1.31-2.41,6,6,0,0,1-.1-2.41,8.28,8.28,0,0,1,.81-2.38,14.06,14.06,0,0,1,1.49-2.24,22.37,22.37,0,0,1,1.85-2.05q1-1,2-1.77c.7-.59,1.44-1.15,2.23-1.7s1.62-1.06,2.44-1.53,1.63-.91,2.43-1.3,1.58-.75,2.3-1L147,349" style="scrollbar-width: thin;"></path><path class="watermark-path" d="M186.76,337.57l-10.6-12.63,3.92,18.24-4.66,3.91-17.27-7,10.6,12.63-4.86,4.07-15.09-18,6.59-5.54,18.69,7.52-4.15-19.71,6.57-5.52,15.09,18-4.83,4.05" style="scrollbar-width: thin;"></path><path class="watermark-path" d="M208.84,313.24l-10,8.42,1.16,4.82L194.56,331l-5.68-25.89,5.42-4.55,24.51,10.09-5.42,4.55-4.55-2m-11.23,3.45,6.57-5.52-8.83-3.87,2.26,9.39" style="scrollbar-width: thin;"></path><path class="watermark-path" d="M227.49,281.38c-.48.12-1.09.31-1.82.57a24.37,24.37,0,0,0-2.4,1,26.11,26.11,0,0,0-2.7,1.47,20.72,20.72,0,0,0-2.71,1.94c-.7.59-1.28,1.11-1.74,1.57a13.39,13.39,0,0,0-1.1,1.22,4.29,4.29,0,0,0-.59.91,2.48,2.48,0,0,0-.22.65,1.16,1.16,0,0,0,0,.47,1.83,1.83,0,0,0,.18.29,1.15,1.15,0,0,0,1,.37,5.54,5.54,0,0,0,1.51-.38q.87-.34,2-.9l2.26-1.18q1.2-.64,2.49-1.29c.87-.44,1.73-.83,2.59-1.17a18.94,18.94,0,0,1,2.6-.81,9.27,9.27,0,0,1,2.46-.29,6.08,6.08,0,0,1,2.24.49,5.09,5.09,0,0,1,1.89,1.46,6.47,6.47,0,0,1,1.41,2.61,6.07,6.07,0,0,1,.09,2.61,8.3,8.3,0,0,1-.9,2.52,16.32,16.32,0,0,1-1.63,2.36,21.41,21.41,0,0,1-2,2.16c-.72.67-1.41,1.29-2.1,1.86a33.36,33.36,0,0,1-5.32,3.71,31.92,31.92,0,0,1-4.92,2.28l-3.6-4.3a21.38,21.38,0,0,0,5.39-1.87,27.2,27.2,0,0,0,5.4-3.56,21.59,21.59,0,0,0,2.38-2.27,8.67,8.67,0,0,0,1.18-1.7A2.32,2.32,0,0,0,231,293a1.34,1.34,0,0,0-.28-.74,1.21,1.21,0,0,0-1-.42,4.32,4.32,0,0,0-1.55.34,16.54,16.54,0,0,0-2,.88c-.71.37-1.47.77-2.26,1.21l-2.46,1.3c-.84.44-1.7.85-2.55,1.21a24.53,24.53,0,0,1-2.54.86A10,10,0,0,1,214,298a5.76,5.76,0,0,1-2.2-.45,5,5,0,0,1-1.89-1.45,6.12,6.12,0,0,1-1.31-2.41,5.78,5.78,0,0,1-.1-2.41,8,8,0,0,1,.81-2.38,14.61,14.61,0,0,1,1.49-2.25,22.26,22.26,0,0,1,1.85-2q1-1,2-1.77c.7-.59,1.44-1.15,2.23-1.7s1.62-1.06,2.44-1.53,1.63-.91,2.43-1.31,1.58-.74,2.3-1l3.5,4.16" style="scrollbar-width: thin;"></path><path class="watermark-path" d="M261.64,274.74l-6.29-7.5L243,277.61l6.3,7.5-4.86,4.07-15.09-18,4.85-4.08,5.49,6.55L252,263.3l-5.49-6.55,4.86-4.07,15.09,18-4.86,4.08" style="scrollbar-width: thin;"></path><path class="watermark-path" d="M272.18,265.9l-15.09-18,4.86-4.08,15.09,18-4.86,4.08" style="scrollbar-width: thin;"></path><path class="watermark-path" d="M299.65,242.85l-22.51-2.18L287.51,253l-4.85,4.08-15.1-18,5.28-4.43,22.56,2.22L285,224.5l4.83-4.06,15.09,18-5.26,4.42" style="scrollbar-width: thin;"></path><path class="watermark-path" d="M306.68,205.52a31.88,31.88,0,0,1,5.29-3.66,34.48,34.48,0,0,1,5.14-2.35l3.69,4.39a20.77,20.77,0,0,0-2.37.61,20.47,20.47,0,0,0-2.61,1,25.12,25.12,0,0,0-2.76,1.49,23.9,23.9,0,0,0-2.8,2,20.42,20.42,0,0,0-2.8,2.77,12.77,12.77,0,0,0-1.64,2.52,7,7,0,0,0-.68,2.24,6,6,0,0,0,.66,3.64,8.16,8.16,0,0,0,.94,1.38,9.12,9.12,0,0,0,1.08,1.07,6.39,6.39,0,0,0,1.47.91,6.73,6.73,0,0,0,1.88.48,6.54,6.54,0,0,0,2.28-.18,11.67,11.67,0,0,0,2.74-1.07,19.38,19.38,0,0,0,3.18-2.22c.57-.48,1.06-.92,1.46-1.31a14.57,14.57,0,0,0,1-1.13,11.46,11.46,0,0,0,.81-1.05l.74-1.09-1.82-2.17-5.45,4.57-3.31-3.94,10.31-8.65,7.71,9.19a29,29,0,0,1-1.67,2.43q-1,1.26-2.1,2.52c-.74.84-1.5,1.65-2.3,2.44s-1.58,1.5-2.33,2.14a31,31,0,0,1-3.59,2.61,22.55,22.55,0,0,1-3.64,1.83,15.64,15.64,0,0,1-3.63.89,10.72,10.72,0,0,1-3.49-.15,10.45,10.45,0,0,1-3.28-1.33,12.54,12.54,0,0,1-3-2.67,12,12,0,0,1-2.08-3.44,10.45,10.45,0,0,1-.71-3.5,11.14,11.14,0,0,1,.51-3.51,15.72,15.72,0,0,1,1.56-3.43,21.62,21.62,0,0,1,2.42-3.28,30.3,30.3,0,0,1,3.15-3" style="scrollbar-width: thin;"></path><path class="watermark-path" d="M336.91,211.59l-15.1-18,4.86-4.08,11.79,14,13.13-11,3.31,3.94-18,15.1" style="scrollbar-width: thin;"></path><path class="watermark-path" d="M374.54,164.71a12.28,12.28,0,0,1,2.59,4.81,10.44,10.44,0,0,1,0,5,14.62,14.62,0,0,1-2.33,5,25.55,25.55,0,0,1-4.56,4.85,26.07,26.07,0,0,1-5.6,3.67,14.79,14.79,0,0,1-5.38,1.43,10.43,10.43,0,0,1-4.94-.89,13.24,13.24,0,0,1-6.87-8.18,10.48,10.48,0,0,1,0-5,14.51,14.51,0,0,1,2.36-5,25.23,25.23,0,0,1,4.57-4.89,25,25,0,0,1,5.59-3.64,14.45,14.45,0,0,1,5.35-1.43,10.31,10.31,0,0,1,4.93.92,12.22,12.22,0,0,1,4.28,3.38m-4.91,4.11a8.36,8.36,0,0,0-2-1.72,5.5,5.5,0,0,0-2.65-.85,7.72,7.72,0,0,0-3.32.57,14.49,14.49,0,0,0-4,2.52,16.72,16.72,0,0,0-2.38,2.4,10.15,10.15,0,0,0-1.39,2.24,6.71,6.71,0,0,0-.56,2.1,5.69,5.69,0,0,0,.1,1.9,6.21,6.21,0,0,0,.61,1.69,9.85,9.85,0,0,0,1,1.44,10.48,10.48,0,0,0,1.26,1.23,6.67,6.67,0,0,0,1.57.92,6.1,6.1,0,0,0,1.85.41,6.8,6.8,0,0,0,2.15-.2,11.06,11.06,0,0,0,2.45-1,17.67,17.67,0,0,0,2.77-1.94,14.39,14.39,0,0,0,3.18-3.52,7.74,7.74,0,0,0,1.14-3.17,5.54,5.54,0,0,0-.37-2.74,8.52,8.52,0,0,0-1.36-2.3" style="scrollbar-width: thin;"></path><path class="watermark-path" d="M382.66,141.76A32.3,32.3,0,0,1,388,138.1a34.12,34.12,0,0,1,5.15-2.35l3.69,4.4a19.62,19.62,0,0,0-2.37.6,22.08,22.08,0,0,0-2.61,1,26,26,0,0,0-2.77,1.49,23.9,23.9,0,0,0-2.8,2,21,21,0,0,0-2.8,2.78,13.19,13.19,0,0,0-1.64,2.51,7.29,7.29,0,0,0-.68,2.24,6.36,6.36,0,0,0,.06,2,5.8,5.8,0,0,0,.61,1.68,8.12,8.12,0,0,0,.93,1.38,9.16,9.16,0,0,0,1.08,1.08,6.56,6.56,0,0,0,1.48.9,6,6,0,0,0,1.87.48,6.76,6.76,0,0,0,2.28-.17,12,12,0,0,0,2.74-1.08,18.57,18.57,0,0,0,3.18-2.22c.58-.48,1.06-.92,1.46-1.31s.75-.77,1.05-1.12.57-.72.81-1.06l.73-1.09-1.82-2.17-5.45,4.57-3.3-3.94,10.3-8.65,7.71,9.19a29,29,0,0,1-1.67,2.43q-1,1.26-2.1,2.52c-.73.84-1.5,1.66-2.3,2.44s-1.57,1.5-2.33,2.14a31,31,0,0,1-3.59,2.61,22.15,22.15,0,0,1-3.64,1.83,15.56,15.56,0,0,1-3.62.89,11,11,0,0,1-3.49-.14,10.84,10.84,0,0,1-3.28-1.33,12.82,12.82,0,0,1-3-2.68,12.12,12.12,0,0,1-2.08-3.43A10.71,10.71,0,0,1,375,155a11.18,11.18,0,0,1,.51-3.51,15.51,15.51,0,0,1,1.57-3.43,21.44,21.44,0,0,1,2.42-3.28,30.19,30.19,0,0,1,3.14-3" style="scrollbar-width: thin;"></path><path class="watermark-path" d="M428.63,119.31a12.26,12.26,0,0,1,2.59,4.82,10.44,10.44,0,0,1,0,5,14.53,14.53,0,0,1-2.34,5,25.29,25.29,0,0,1-4.56,4.86,26,26,0,0,1-5.59,3.67,14.84,14.84,0,0,1-5.38,1.43,10.61,10.61,0,0,1-4.95-.89,12.15,12.15,0,0,1-4.3-3.37,12,12,0,0,1-2.56-4.81,10.48,10.48,0,0,1,0-5,14.39,14.39,0,0,1,2.35-5,27.89,27.89,0,0,1,10.16-8.53,14.49,14.49,0,0,1,5.36-1.43,10.27,10.27,0,0,1,4.92.92,12.21,12.21,0,0,1,4.28,3.37m-4.91,4.12a8.17,8.17,0,0,0-2-1.72,5.58,5.58,0,0,0-2.65-.86,7.86,7.86,0,0,0-3.31.58,14.49,14.49,0,0,0-4,2.52,16.21,16.21,0,0,0-2.38,2.4,9.85,9.85,0,0,0-1.4,2.24,7,7,0,0,0-.56,2.1,6,6,0,0,0,.1,1.9,6.23,6.23,0,0,0,.62,1.69,8.49,8.49,0,0,0,1,1.44,9.18,9.18,0,0,0,1.26,1.23,6.67,6.67,0,0,0,1.57.92,6,6,0,0,0,1.84.41,6.86,6.86,0,0,0,2.16-.2,11.26,11.26,0,0,0,2.45-1,17.62,17.62,0,0,0,2.76-1.94,14.67,14.67,0,0,0,3.19-3.52,7.71,7.71,0,0,0,1.13-3.17,5.53,5.53,0,0,0-.36-2.74,8.55,8.55,0,0,0-1.37-2.3" style="scrollbar-width: thin;"></path></g><rect data-element-id="element-id-28627" stroke-width="2" fill="transparent" class="invisible-element-box grouping-element" x="72" y="154" width="407" height="134" data-element-name="isPrimaryText" style="scrollbar-width: thin;"></rect><rect data-element-id="element-id-36987" stroke-width="2" fill="transparent" class="invisible-element-box grouping-element" x="413" y="154" width="65" height="134" data-element-name="isIcon" style="scrollbar-width: thin;"></rect><rect data-element-id="element-id-4304" stroke-width="2" fill="transparent" class="invisible-element-box individual-element" x="413" y="154" width="65" height="134" style="scrollbar-width: thin;"></rect><rect data-element-id="element-id-23119" stroke-width="2" fill="transparent" class="invisible-element-box individual-element" x="72" y="154" width="53" height="134" style="scrollbar-width: thin;"></rect><rect data-element-id="element-id-81317" stroke-width="2" fill="transparent" class="invisible-element-box individual-element" x="138" y="154" width="53" height="134" style="scrollbar-width: thin;"></rect><rect data-element-id="element-id-71758" stroke-width="2" fill="transparent" class="invisible-element-box individual-element" x="228" y="154" width="53" height="134" style="scrollbar-width: thin;"></rect><rect data-element-id="element-id-90244" stroke-width="2" fill="transparent" class="invisible-element-box individual-element" x="294" y="154" width="53" height="134" style="scrollbar-width: thin;"></rect><rect data-element-id="element-id-27612" stroke-width="2" fill="transparent" class="invisible-element-box individual-element" x="360" y="154" width="42" height="134" style="scrollbar-width: thin;"></rect><rect data-element-id="element-id-7500" stroke-width="2" fill="transparent" class="invisible-element-box grouping-element" x="93" y="306" width="382" height="9" data-element-name="isSecondaryText" style="scrollbar-width: thin;"></rect><rect data-element-id="element-id-83180" stroke-width="2" fill="transparent" class="invisible-element-box individual-element" x="425" y="184" width="42" height="36" style="scrollbar-width: thin;"></rect><rect data-element-id="element-id-25751" stroke-width="2" fill="transparent" class="invisible-element-box individual-element" x="204" y="154" width="10" height="134" style="scrollbar-width: thin;"></rect><rect data-element-id="element-id-3873" stroke-width="2" fill="transparent" class="invisible-element-box individual-element" x="93" y="306" width="9" height="9" style="scrollbar-width: thin;"></rect><rect data-element-id="element-id-28120" stroke-width="2" fill="transparent" class="invisible-element-box individual-element" x="310" y="306" width="9" height="9" style="scrollbar-width: thin;"></rect><rect data-element-id="element-id-42149" stroke-width="2" fill="transparent" class="invisible-element-box individual-element" x="105" y="306" width="8" height="9" style="scrollbar-width: thin;"></rect><rect data-element-id="element-id-11491" stroke-width="2" fill="transparent" class="invisible-element-box individual-element" x="117" y="306" width="8" height="9" style="scrollbar-width: thin;"></rect><rect data-element-id="element-id-5298" stroke-width="2" fill="transparent" class="invisible-element-box individual-element" x="128" y="306" width="8" height="9" style="scrollbar-width: thin;"></rect><rect data-element-id="element-id-13032" stroke-width="2" fill="transparent" class="invisible-element-box individual-element" x="146" y="306" width="8" height="9" style="scrollbar-width: thin;"></rect><rect data-element-id="element-id-83605" stroke-width="2" fill="transparent" class="invisible-element-box individual-element" x="157" y="306" width="8" height="9" style="scrollbar-width: thin;"></rect><rect data-element-id="element-id-48944" stroke-width="2" fill="transparent" class="invisible-element-box individual-element" x="169" y="306" width="8" height="9" style="scrollbar-width: thin;"></rect><rect data-element-id="element-id-36023" stroke-width="2" fill="transparent" class="invisible-element-box individual-element" x="180" y="306" width="8" height="9" style="scrollbar-width: thin;"></rect><rect data-element-id="element-id-45345" stroke-width="2" fill="transparent" class="invisible-element-box individual-element" x="190" y="306" width="8" height="9" style="scrollbar-width: thin;"></rect><rect data-element-id="element-id-37706" stroke-width="2" fill="transparent" class="invisible-element-box individual-element" x="208" y="306" width="8" height="9" style="scrollbar-width: thin;"></rect><rect data-element-id="element-id-39419" stroke-width="2" fill="transparent" class="invisible-element-box individual-element" x="224" y="306" width="8" height="9" style="scrollbar-width: thin;"></rect><rect data-element-id="element-id-58420" stroke-width="2" fill="transparent" class="invisible-element-box individual-element" x="235" y="306" width="8" height="9" style="scrollbar-width: thin;"></rect><rect data-element-id="element-id-72988" stroke-width="2" fill="transparent" class="invisible-element-box individual-element" x="247" y="306" width="8" height="9" style="scrollbar-width: thin;"></rect><rect data-element-id="element-id-94191" stroke-width="2" fill="transparent" class="invisible-element-box individual-element" x="258" y="306" width="8" height="9" style="scrollbar-width: thin;"></rect><rect data-element-id="element-id-36447" stroke-width="2" fill="transparent" class="invisible-element-box individual-element" x="276" y="306" width="8" height="9" style="scrollbar-width: thin;"></rect><rect data-element-id="element-id-31697" stroke-width="2" fill="transparent" class="invisible-element-box individual-element" x="287" y="306" width="8" height="9" style="scrollbar-width: thin;"></rect><rect data-element-id="element-id-41673" stroke-width="2" fill="transparent" class="invisible-element-box individual-element" x="299" y="306" width="8" height="9" style="scrollbar-width: thin;"></rect><rect data-element-id="element-id-56403" stroke-width="2" fill="transparent" class="invisible-element-box individual-element" x="323" y="306" width="8" height="9" style="scrollbar-width: thin;"></rect><rect data-element-id="element-id-99072" stroke-width="2" fill="transparent" class="invisible-element-box individual-element" x="334" y="306" width="8" height="9" style="scrollbar-width: thin;"></rect><rect data-element-id="element-id-21334" stroke-width="2" fill="transparent" class="invisible-element-box individual-element" x="345" y="306" width="8" height="9" style="scrollbar-width: thin;"></rect><rect data-element-id="element-id-8525" stroke-width="2" fill="transparent" class="invisible-element-box individual-element" x="356" y="306" width="8" height="9" style="scrollbar-width: thin;"></rect><rect data-element-id="element-id-86765" stroke-width="2" fill="transparent" class="invisible-element-box individual-element" x="367" y="306" width="8" height="9" style="scrollbar-width: thin;"></rect><rect data-element-id="element-id-15421" stroke-width="2" fill="transparent" class="invisible-element-box individual-element" x="378" y="306" width="8" height="9" style="scrollbar-width: thin;"></rect><rect data-element-id="element-id-73770" stroke-width="2" fill="transparent" class="invisible-element-box individual-element" x="397" y="306" width="8" height="9" style="scrollbar-width: thin;"></rect><rect data-element-id="element-id-9692" stroke-width="2" fill="transparent" class="invisible-element-box individual-element" x="408" y="306" width="8" height="9" style="scrollbar-width: thin;"></rect><rect data-element-id="element-id-67652" stroke-width="2" fill="transparent" class="invisible-element-box individual-element" x="419" y="306" width="8" height="9" style="scrollbar-width: thin;"></rect><rect data-element-id="element-id-2268" stroke-width="2" fill="transparent" class="invisible-element-box individual-element" x="429" y="306" width="8" height="9" style="scrollbar-width: thin;"></rect><rect data-element-id="element-id-54262" stroke-width="2" fill="transparent" class="invisible-element-box individual-element" x="440" y="306" width="8" height="9" style="scrollbar-width: thin;"></rect><rect data-element-id="element-id-70161" stroke-width="2" fill="transparent" class="invisible-element-box individual-element" x="451" y="306" width="8" height="9" style="scrollbar-width: thin;"></rect><rect data-element-id="element-id-92122" stroke-width="2" fill="transparent" class="invisible-element-box individual-element" x="463" y="306" width="8" height="9" style="scrollbar-width: thin;"></rect><rect data-element-id="element-id-84584" stroke-width="2" fill="transparent" class="invisible-element-box individual-element" x="220" y="306" width="1" height="9" style="scrollbar-width: thin;"></rect><rect data-element-id="element-id-2450" stroke-width="2" fill="transparent" class="invisible-element-box individual-element" x="474" y="315" width="1" height="1" style="scrollbar-width: thin;"></rect></svg>