<svg xmlns:mydata="http://www.w3.org/2000/svg" mydata:contrastcolor="ffffff" mydata:template="Default" mydata:presentation="2.5" mydata:layouttype="undefined" mydata:specialfontid="undefined" mydata:id1="348" mydata:id2="631" mydata:companyname="thinner" mydata:companytagline="Make every single scrollbars elegant." version="1.1" xmlns="http://www.w3.org/2000/svg" xmlns:xlink="http://www.w3.org/1999/xlink" viewBox="0 0 550 470"><g fill="#2d2926" fill-rule="none" stroke="none" stroke-width="1" stroke-linecap="butt" stroke-linejoin="miter" stroke-miterlimit="10" stroke-dasharray="" stroke-dashoffset="0" font-family="none" font-weight="none" font-size="none" text-anchor="none" style="mix-blend-mode: normal; scrollbar-width: thin;"><g data-paper-data="{&quot;isGlobalGroup&quot;:true,&quot;bounds&quot;:{&quot;x&quot;:71.55394842320845,&quot;y&quot;:154.45453295027733,&quot;width&quot;:406.8921031535831,&quot;height&quot;:161.0909340994454}}" style="scrollbar-width: thin;"><g data-paper-data="{&quot;isSecondaryText&quot;:true}" fill-rule="nonzero" style="scrollbar-width: thin;"><path d="M92.76871,315.54547h0.88108v-7.87683l2.40697,3.32644l0.21494,0.29767l0.68149,0.94164l0.10918,0.15182l0.21579,0.29682l0.00341,0.00418l3.63093,-5.01857v7.87683h0.87681l0.00426,-0.00094h0.00426v-9.10326h-1.08919l-3.42708,4.73719l-3.42623,-4.73548l-0.00085,-0.00171h-1.09005v9.10326h0.00426z" data-paper-data="{&quot;glyphName&quot;:&quot;M&quot;,&quot;glyphIndex&quot;:0,&quot;firstGlyphOfWord&quot;:true,&quot;word&quot;:1}" style="scrollbar-width: thin;"></path><path d="M106.94736,313.78422h4.48137l0.64998,1.75781l0.00169,0.0026h0.94325l-0.65245,-1.76639l-0.12961,-0.34891l-2.58186,-6.9812l-0.00338,-0.00689h-0.93649l-2.39076,6.46095l-0.12883,0.34891l-0.19538,0.52714l-0.65076,1.76041l-0.00169,0.00585h0.94338zM109.18811,307.72574l1.91394,5.17399h-3.828z" data-paper-data="{&quot;glyphName&quot;:&quot;A&quot;,&quot;glyphIndex&quot;:1,&quot;word&quot;:1}" style="scrollbar-width: thin;"></path><path d="M117.53821,315.54453h0.11344l2.74644,-3.79802l2.74644,3.7964l0.00085,0.00162h0.11259v0.00094h0.63629l0.00426,-0.00094h0.33947l-3.29402,-4.55201l3.28805,-4.54442l0.00512,-0.00682h-1.09175l-2.74985,3.80152l-2.94773,4.07446v-7.87598h-0.88534v9.1042h0.97575z" data-paper-data="{&quot;glyphName&quot;:&quot;K&quot;,&quot;glyphIndex&quot;:2,&quot;word&quot;:1}" style="scrollbar-width: thin;"></path><path d="M127.78548,315.54547h7.67127v-0.88534h-6.78593v-3.22408h4.76107v-0.88534h-4.76107v-3.22494h6.78593v-0.88449h-7.67127z" data-paper-data="{&quot;glyphName&quot;:&quot;E&quot;,&quot;glyphIndex&quot;:3,&quot;lastGlyphOfWord&quot;:true,&quot;word&quot;:1}" style="scrollbar-width: thin;"></path><path d="M146.21463,315.54547h7.67127v-0.88534h-6.78593v-3.22408h4.76107v-0.88534h-4.76107v-3.22494h6.78593v-0.88449h-7.67127z" data-paper-data="{&quot;glyphName&quot;:&quot;E&quot;,&quot;glyphIndex&quot;:4,&quot;firstGlyphOfWord&quot;:true,&quot;word&quot;:2}" style="scrollbar-width: thin;"></path><path d="M161.27333,314.26014l-2.8906,-7.81629l-0.00169,-0.0026h-0.94338l0.65245,1.76639l0.12974,0.34891l2.58433,6.9864l0.00091,0.00247l0.93649,-0.00091l2.39076,-6.46095l0.19447,-0.52701l0.12961,-0.34891l0.65076,-1.76041l0.00169,-0.00598h-0.94416z" data-paper-data="{&quot;glyphName&quot;:&quot;V&quot;,&quot;glyphIndex&quot;:5,&quot;word&quot;:2}" style="scrollbar-width: thin;"></path><path d="M168.64768,315.54547h7.67127v-0.88534h-6.78593v-3.22408h4.76107v-0.88534h-4.76107v-3.22494h6.78593v-0.88449h-7.67127z" data-paper-data="{&quot;glyphName&quot;:&quot;E&quot;,&quot;glyphIndex&quot;:6,&quot;word&quot;:2}" style="scrollbar-width: thin;"></path><path d="M186.97213,311.54692c0.37358,-0.54417 0.57146,-1.18216 0.57146,-1.84489c0,-0.87084 -0.33947,-1.68966 -0.95528,-2.30548c-0.61582,-0.61582 -1.43463,-0.95528 -2.30548,-0.95528h-4.41213v9.1042h0.88108l0.00426,-0.00085v-2.58097h3.52688c0.10406,0 0.20044,-0.00426 0.29597,-0.01365l1.8756,2.59291l0.00085,0.00171h1.09261l-2.03936,-2.81979c0.59356,-0.24053 1.09934,-0.64738 1.46355,-1.1779zM184.59075,312.05783c-0.06738,0.00938 -0.13732,0.01535 -0.20641,0.01791c-0.03412,0.00171 -0.06738,0.00256 -0.1015,0.00256h-3.52688v-4.75169h3.52688c1.3101,0 2.37542,1.06531 2.37542,2.37542c0,1.04228 -0.69599,1.9788 -1.69307,2.27648c-0.12112,0.03668 -0.2465,0.06312 -0.37444,0.07932z" data-paper-data="{&quot;glyphName&quot;:&quot;R&quot;,&quot;glyphIndex&quot;:7,&quot;word&quot;:2}" style="scrollbar-width: thin;"></path><path d="M193.76366,310.23767l-2.74559,-3.7947l-0.00085,-0.00171h-1.09346l3.29488,4.55295l0.1015,0.14073v4.41051h0.88534v-4.40795l3.39211,-4.68942l0.00512,-0.00682h-1.09261z" data-paper-data="{&quot;glyphName&quot;:&quot;Y&quot;,&quot;glyphIndex&quot;:8,&quot;lastGlyphOfWord&quot;:true,&quot;word&quot;:2}" style="scrollbar-width: thin;"></path><path d="M213.5268,306.44127h-2.6765c-1.37663,0 -2.49739,1.12075 -2.49739,2.49739c0,0.66699 0.26014,1.29475 0.73182,1.76642c0.47167,0.47082 1.09858,0.73096 1.76557,0.73096l2.67565,-0.00085c0.88876,0 1.61204,0.72329 1.61204,1.61204c0,0.88876 -0.72329,1.61204 -1.61204,1.61204l-2.67565,0.00085c-0.88876,0 -1.61204,-0.72329 -1.61204,-1.61204v-0.00426h-0.88534v0.00426c0,0.66699 0.26014,1.2939 0.73182,1.76557c0.47167,0.47167 1.09858,0.73096 1.76557,0.73096h2.6765c0.66699,0 1.29475,-0.26014 1.76557,-0.73096c0.47252,-0.47167 0.73182,-1.09943 0.73182,-1.76642c0,-0.66699 -0.25929,-1.2939 -0.73182,-1.76557c-0.47167,-0.47167 -1.09858,-0.73096 -1.76557,-0.73096l-2.6765,0.00085c-0.88876,0 -1.61204,-0.7232 -1.61204,-1.6129c0,-0.88876 0.72329,-1.61204 1.61204,-1.61204l2.67565,-0.00085c0.88876,0 1.61204,0.72329 1.61204,1.6129v0.00426h0.8862v-0.00426c0,-0.66699 -0.25929,-1.29475 -0.73182,-1.76642c-0.47082,-0.47082 -1.09858,-0.73096 -1.76557,-0.73096z" data-paper-data="{&quot;glyphName&quot;:&quot;S&quot;,&quot;glyphIndex&quot;:9,&quot;firstGlyphOfWord&quot;:true,&quot;word&quot;:3}" style="scrollbar-width: thin;"></path><path d="M220.59134,315.54451v-9.10326h-0.88541v9.10326z" data-paper-data="{&quot;glyphName&quot;:&quot;I&quot;,&quot;glyphIndex&quot;:10,&quot;word&quot;:3}" style="scrollbar-width: thin;"></path><path d="M230.92907,314.31554l-5.69503,-7.87257l-0.00085,-0.00171h-1.09005v9.10326h0.00426v0.00094h0.88108v-7.87683l2.40697,3.32644l3.28976,4.54784l0.00085,0.00162h0.20641v0.00094h0.88193v-9.1042h-0.88534z" data-paper-data="{&quot;glyphName&quot;:&quot;N&quot;,&quot;glyphIndex&quot;:11,&quot;word&quot;:3}" style="scrollbar-width: thin;"></path><path d="M242.51118,308.40045l0.00341,0.00256l0.36847,-0.36847l0.25417,-0.25332l0.00256,-0.00341l-0.00256,-0.00341c-0.435,-0.43414 -0.94164,-0.77105 -1.50628,-0.99964c-0.54502,-0.22176 -1.12161,-0.3335 -1.71269,-0.3335c-0.59108,0 -1.16766,0.11173 -1.71354,0.3335c-0.56464,0.22859 -1.07128,0.56549 -1.50543,0.99964c-0.435,0.435 -0.77105,0.94078 -0.99964,1.50543c-0.22091,0.54588 -0.3335,1.12161 -0.3335,1.71269c0,0.59108 0.11259,1.16766 0.3335,1.71269c0.22944,0.56464 0.56549,1.07137 0.99964,1.50543c0.36932,0.36932 0.79237,0.6687 1.25893,0.89131c0.4512,0.21494 0.93226,0.35397 1.43122,0.41197c0.49385,0.05715 0.99025,0.03412 1.47557,-0.06823c0.49129,-0.10406 0.9587,-0.28744 1.38772,-0.54417v0.64396h0.88108l0.00426,-0.00085v-4.99392h-0.88534v3.26929c-0.36505,0.30194 -0.77105,0.52285 -1.19496,0.66273c-0.73096,0.23797 -1.52078,0.24053 -2.25259,0.00853c-0.01109,-0.00341 -0.02303,-0.00682 -0.03412,-0.01024c-0.00512,-0.00171 -0.01024,-0.00341 -0.01621,-0.00512c-0.52199,-0.17656 -1.01328,-0.47338 -1.42951,-0.89046c-1.42951,-1.42951 -1.42951,-3.75546 0,-5.18498c1.42951,-1.42951 3.75631,-1.43037 5.18583,0zM240.80702,314.91344c-0.60899,0.13988 -1.24016,0.1322 -1.84233,-0.01535c0.60473,0.1467 1.2359,0.15259 1.84233,0.01535z" data-paper-data="{&quot;glyphName&quot;:&quot;G&quot;,&quot;glyphIndex&quot;:12,&quot;word&quot;:3}" style="scrollbar-width: thin;"></path><path d="M247.56468,306.44127h-0.88449v9.1042h7.66616l0.00426,-0.00094v-0.88441h-6.78593z" data-paper-data="{&quot;glyphName&quot;:&quot;L&quot;,&quot;glyphIndex&quot;:13,&quot;word&quot;:3}" style="scrollbar-width: thin;"></path><path d="M257.89021,315.54547h7.67127v-0.88534h-6.78593v-3.22408h4.76107v-0.88534h-4.76107v-3.22494h6.78593v-0.88449h-7.67127z" data-paper-data="{&quot;glyphName&quot;:&quot;E&quot;,&quot;glyphIndex&quot;:14,&quot;lastGlyphOfWord&quot;:true,&quot;word&quot;:3}" style="scrollbar-width: thin;"></path><path d="M281.49326,306.44127h-2.6765c-1.37663,0 -2.49739,1.12075 -2.49739,2.49739c0,0.66699 0.26014,1.29475 0.73182,1.76642c0.47167,0.47082 1.09858,0.73096 1.76557,0.73096l2.67565,-0.00085c0.88876,0 1.61204,0.72329 1.61204,1.61204c0,0.88876 -0.72329,1.61204 -1.61204,1.61204l-2.67565,0.00085c-0.88876,0 -1.61204,-0.72329 -1.61204,-1.61204v-0.00426h-0.88534v0.00426c0,0.66699 0.26014,1.2939 0.73182,1.76557c0.47167,0.47167 1.09858,0.73096 1.76557,0.73096h2.6765c0.66699,0 1.29475,-0.26014 1.76557,-0.73096c0.47252,-0.47167 0.73182,-1.09943 0.73182,-1.76642c0,-0.66699 -0.25929,-1.2939 -0.73182,-1.76557c-0.47167,-0.47167 -1.09858,-0.73096 -1.76557,-0.73096l-2.6765,0.00085c-0.88876,0 -1.61204,-0.7232 -1.61204,-1.6129c0,-0.88876 0.72329,-1.61204 1.61204,-1.61204l2.67565,-0.00085c0.88876,0 1.61204,0.72329 1.61204,1.6129v0.00426h0.8862v-0.00426c0,-0.66699 -0.25929,-1.29475 -0.73182,-1.76642c-0.47082,-0.47082 -1.09858,-0.73096 -1.76557,-0.73096z" data-paper-data="{&quot;glyphName&quot;:&quot;S&quot;,&quot;glyphIndex&quot;:15,&quot;firstGlyphOfWord&quot;:true,&quot;word&quot;:4}" style="scrollbar-width: thin;"></path><path d="M295.11761,314.21233l0.00341,-0.00341l-0.62349,-0.62264l-0.00256,-0.00341l-0.00341,0.00341c-0.69258,0.69258 -1.6129,1.07384 -2.59291,1.07384c-0.97917,0 -1.90033,-0.38126 -2.59291,-1.07384c-0.69258,-0.69258 -1.07384,-1.61375 -1.07384,-2.59291c0,-0.97917 0.38126,-1.90033 1.07384,-2.59291c0.69258,-0.69258 1.61375,-1.07384 2.59377,-1.07384c0.48958,0 0.96467,0.09553 1.40393,0.2772c0.43926,0.18167 0.8427,0.45035 1.18899,0.79579l0.00256,0.00341l0.62264,-0.62264l0.00341,-0.00256l-0.00341,-0.00341c-0.43414,-0.43414 -0.94164,-0.77105 -1.50628,-0.99964c-0.54502,-0.22176 -1.12161,-0.3335 -1.71269,-0.3335c-0.59108,0 -1.16766,0.11173 -1.71269,0.3335c-0.56464,0.22859 -1.07128,0.56549 -1.50628,0.99964c-0.43414,0.43414 -0.7702,0.94078 -0.99964,1.50543c-0.22091,0.54588 -0.33264,1.12161 -0.33264,1.71269c0,0.59108 0.11173,1.16766 0.3335,1.71269c0.22859,0.56464 0.56549,1.07214 0.99964,1.50628c0.43414,0.43414 0.94078,0.77105 1.50543,0.99964c0.54588,0.22091 1.12161,0.3335 1.71269,0.3335c0.00085,0 0.00085,0 0.00085,0c0.59108,0 1.16766,-0.11173 1.71269,-0.33264c0.56464,-0.22944 1.07128,-0.56549 1.50543,-0.99964z" data-paper-data="{&quot;glyphName&quot;:&quot;C&quot;,&quot;glyphIndex&quot;:16,&quot;word&quot;:4}" style="scrollbar-width: thin;"></path><path d="M305.95784,311.54692c0.37358,-0.54417 0.57146,-1.18216 0.57146,-1.84489c0,-0.87084 -0.33947,-1.68966 -0.95528,-2.30548c-0.61582,-0.61582 -1.43463,-0.95528 -2.30548,-0.95528h-4.41213v9.1042h0.88108l0.00426,-0.00085v-2.58097h3.52688c0.10406,0 0.20044,-0.00426 0.29597,-0.01365l1.8756,2.59291l0.00085,0.00171h1.09261l-2.03936,-2.81979c0.59356,-0.24053 1.09934,-0.64738 1.46355,-1.1779zM303.57645,312.05783c-0.06738,0.00938 -0.13732,0.01535 -0.20641,0.01791c-0.03412,0.00171 -0.06738,0.00256 -0.1015,0.00256h-3.52688v-4.75169h3.52688c1.3101,0 2.37542,1.06531 2.37542,2.37542c0,1.04228 -0.69599,1.9788 -1.69307,2.27648c-0.12112,0.03668 -0.2465,0.06312 -0.37444,0.07932z" data-paper-data="{&quot;glyphName&quot;:&quot;R&quot;,&quot;glyphIndex&quot;:17,&quot;word&quot;:4}" style="scrollbar-width: thin;"></path><path d="M317.84965,307.7744c-0.41794,-0.41794 -0.90496,-0.74632 -1.44657,-0.97575c-0.56123,-0.23712 -1.15743,-0.35738 -1.77154,-0.35738c-0.61496,0 -1.21116,0.12026 -1.77239,0.35729c-0.54161,0.22944 -1.02864,0.55782 -1.44657,0.97575c-0.41794,0.41794 -0.74632,0.90496 -0.97575,1.44657c-0.23712,0.56208 -0.35738,1.15743 -0.35738,1.77239c0,0.61411 0.12026,1.21031 0.35738,1.77154c0.22944,0.54161 0.55782,1.02864 0.97575,1.44657c0.41794,0.41794 0.90496,0.74632 1.44657,0.97575c0.56123,0.23712 1.15743,0.35738 1.77239,0.35738c0.61411,0 1.21031,-0.12026 1.77154,-0.35738c0.54161,-0.22944 1.02864,-0.55782 1.44657,-0.97575c0.41794,-0.41794 0.74632,-0.90496 0.97575,-1.44657c0.23797,-0.56123 0.35823,-1.15743 0.35823,-1.77154c0,-0.61496 -0.12026,-1.21031 -0.35823,-1.77239c-0.22944,-0.54153 -0.55782,-1.02855 -0.97575,-1.44649zM314.63153,314.66012c-2.0223,0 -3.66676,-1.64531 -3.66676,-3.66676c0,-2.0223 1.64445,-3.66761 3.66676,-3.66761c2.02145,0 3.66676,1.64531 3.66676,3.66761c0,2.02145 -1.64531,3.66676 -3.66676,3.66676z" data-paper-data="{&quot;glyphName&quot;:&quot;O&quot;,&quot;glyphIndex&quot;:18,&quot;word&quot;:4}" style="scrollbar-width: thin;"></path><path d="M323.61691,306.44127h-0.88449v9.1042h7.66616l0.00426,-0.00094v-0.88441h-6.78593z" data-paper-data="{&quot;glyphName&quot;:&quot;L&quot;,&quot;glyphIndex&quot;:19,&quot;word&quot;:4}" style="scrollbar-width: thin;"></path><path d="M334.82693,306.44127h-0.88449v9.1042h7.66616l0.00426,-0.00094v-0.88441h-6.78593z" data-paper-data="{&quot;glyphName&quot;:&quot;L&quot;,&quot;glyphIndex&quot;:20,&quot;word&quot;:4}" style="scrollbar-width: thin;"></path><path d="M352.82459,313.04808c0,-0.82137 -0.40258,-1.58816 -1.07811,-2.05471c0.67552,-0.46655 1.07811,-1.23419 1.07811,-2.05471c0,-0.66699 -0.26014,-1.29475 -0.73182,-1.76642c-0.47167,-0.47167 -1.09858,-0.73096 -1.76557,-0.73096h-5.17474v9.1042h5.17474c1.37663,0 2.49739,-1.12075 2.49739,-2.49739zM346.03781,307.32576h4.2894c0.88876,0 1.61204,0.72329 1.61204,1.6129c0,0.88876 -0.72329,1.61204 -1.61204,1.61204h-4.2894zM350.32721,314.66012h-4.2894v-3.22408h4.2894c0.00597,0 0.01194,0 0.01791,-0.00085c0.87937,0.00938 1.59413,0.73267 1.59413,1.6129c0,0.88876 -0.72329,1.61204 -1.61204,1.61204z" data-paper-data="{&quot;glyphName&quot;:&quot;B&quot;,&quot;glyphIndex&quot;:21,&quot;word&quot;:4}" style="scrollbar-width: thin;"></path><path d="M357.32043,313.78422h4.48137l0.64998,1.75781l0.00169,0.0026h0.94325l-0.65245,-1.76639l-0.12961,-0.34891l-2.58186,-6.9812l-0.00338,-0.00689h-0.93649l-2.39076,6.46095l-0.12883,0.34891l-0.19538,0.52714l-0.65076,1.76041l-0.00169,0.00585h0.94338zM359.56118,307.72574l1.91394,5.17399h-3.828z" data-paper-data="{&quot;glyphName&quot;:&quot;A&quot;,&quot;glyphIndex&quot;:22,&quot;word&quot;:4}" style="scrollbar-width: thin;"></path><path d="M374.03696,311.54692c0.37358,-0.54417 0.57146,-1.18216 0.57146,-1.84489c0,-0.87084 -0.33947,-1.68966 -0.95528,-2.30548c-0.61582,-0.61582 -1.43463,-0.95528 -2.30548,-0.95528h-4.41213v9.1042h0.88108l0.00426,-0.00085v-2.58097h3.52688c0.10406,0 0.20044,-0.00426 0.29597,-0.01365l1.8756,2.59291l0.00085,0.00171h1.09261l-2.03936,-2.81979c0.59356,-0.24053 1.09934,-0.64738 1.46355,-1.1779zM371.65557,312.05783c-0.06738,0.00938 -0.13732,0.01535 -0.20641,0.01791c-0.03412,0.00171 -0.06738,0.00256 -0.1015,0.00256h-3.52688v-4.75169h3.52688c1.3101,0 2.37542,1.06531 2.37542,2.37542c0,1.04228 -0.69599,1.9788 -1.69307,2.27648c-0.12112,0.03668 -0.2465,0.06312 -0.37444,0.07932z" data-paper-data="{&quot;glyphName&quot;:&quot;R&quot;,&quot;glyphIndex&quot;:23,&quot;word&quot;:4}" style="scrollbar-width: thin;"></path><path d="M383.33244,306.44127h-2.6765c-1.37663,0 -2.49739,1.12075 -2.49739,2.49739c0,0.66699 0.26014,1.29475 0.73182,1.76642c0.47167,0.47082 1.09858,0.73096 1.76557,0.73096l2.67565,-0.00085c0.88876,0 1.61204,0.72329 1.61204,1.61204c0,0.88876 -0.72329,1.61204 -1.61204,1.61204l-2.67565,0.00085c-0.88876,0 -1.61204,-0.72329 -1.61204,-1.61204v-0.00426h-0.88534v0.00426c0,0.66699 0.26014,1.2939 0.73182,1.76557c0.47167,0.47167 1.09858,0.73096 1.76557,0.73096h2.6765c0.66699,0 1.29475,-0.26014 1.76557,-0.73096c0.47252,-0.47167 0.73182,-1.09943 0.73182,-1.76642c0,-0.66699 -0.25929,-1.2939 -0.73182,-1.76557c-0.47167,-0.47167 -1.09858,-0.73096 -1.76557,-0.73096l-2.6765,0.00085c-0.88876,0 -1.61204,-0.7232 -1.61204,-1.6129c0,-0.88876 0.72329,-1.61204 1.61204,-1.61204l2.67565,-0.00085c0.88876,0 1.61204,0.72329 1.61204,1.6129v0.00426h0.8862v-0.00426c0,-0.66699 -0.25929,-1.29475 -0.73182,-1.76642c-0.47082,-0.47082 -1.09858,-0.73096 -1.76557,-0.73096z" data-paper-data="{&quot;glyphName&quot;:&quot;S&quot;,&quot;glyphIndex&quot;:24,&quot;lastGlyphOfWord&quot;:true,&quot;word&quot;:4}" style="scrollbar-width: thin;"></path><path d="M396.58771,315.54547h7.67127v-0.88534h-6.78593v-3.22408h4.76107v-0.88534h-4.76107v-3.22494h6.78593v-0.88449h-7.67127z" data-paper-data="{&quot;glyphName&quot;:&quot;E&quot;,&quot;glyphIndex&quot;:25,&quot;firstGlyphOfWord&quot;:true,&quot;word&quot;:5}" style="scrollbar-width: thin;"></path><path d="M408.69522,306.44127h-0.88449v9.1042h7.66616l0.00426,-0.00094v-0.88441h-6.78593z" data-paper-data="{&quot;glyphName&quot;:&quot;L&quot;,&quot;glyphIndex&quot;:26,&quot;word&quot;:5}" style="scrollbar-width: thin;"></path><path d="M419.02076,315.54547h7.67127v-0.88534h-6.78593v-3.22408h4.76107v-0.88534h-4.76107v-3.22494h6.78593v-0.88449h-7.67127z" data-paper-data="{&quot;glyphName&quot;:&quot;E&quot;,&quot;glyphIndex&quot;:27,&quot;word&quot;:5}" style="scrollbar-width: thin;"></path><path d="M435.95883,308.40045l0.00341,0.00256l0.36847,-0.36847l0.25417,-0.25332l0.00256,-0.00341l-0.00256,-0.00341c-0.435,-0.43414 -0.94164,-0.77105 -1.50628,-0.99964c-0.54502,-0.22176 -1.12161,-0.3335 -1.71269,-0.3335c-0.59108,0 -1.16766,0.11173 -1.71354,0.3335c-0.56464,0.22859 -1.07128,0.56549 -1.50543,0.99964c-0.435,0.435 -0.77105,0.94078 -0.99964,1.50543c-0.22091,0.54588 -0.3335,1.12161 -0.3335,1.71269c0,0.59108 0.11259,1.16766 0.3335,1.71269c0.22944,0.56464 0.56549,1.07137 0.99964,1.50543c0.36932,0.36932 0.79237,0.6687 1.25893,0.89131c0.4512,0.21494 0.93226,0.35397 1.43122,0.41197c0.49385,0.05715 0.99025,0.03412 1.47557,-0.06823c0.49129,-0.10406 0.9587,-0.28744 1.38772,-0.54417v0.64396h0.88108l0.00426,-0.00085v-4.99392h-0.88534v3.26929c-0.36505,0.30194 -0.77105,0.52285 -1.19496,0.66273c-0.73096,0.23797 -1.52078,0.24053 -2.25259,0.00853c-0.01109,-0.00341 -0.02303,-0.00682 -0.03412,-0.01024c-0.00512,-0.00171 -0.01024,-0.00341 -0.01621,-0.00512c-0.52199,-0.17656 -1.01328,-0.47338 -1.42951,-0.89046c-1.42951,-1.42951 -1.42951,-3.75546 0,-5.18498c1.42951,-1.42951 3.75631,-1.43037 5.18583,0zM434.25467,314.91344c-0.60899,0.13988 -1.24016,0.1322 -1.84233,-0.01535c0.60473,0.1467 1.2359,0.15259 1.84233,0.01535z" data-paper-data="{&quot;glyphName&quot;:&quot;G&quot;,&quot;glyphIndex&quot;:28,&quot;word&quot;:5}" style="scrollbar-width: thin;"></path><path d="M441.72276,313.78422h4.48137l0.64998,1.75781l0.00169,0.0026h0.94325l-0.65245,-1.76639l-0.12961,-0.34891l-2.58186,-6.9812l-0.00338,-0.00689h-0.93649l-2.39076,6.46095l-0.12883,0.34891l-0.19538,0.52714l-0.65076,1.76041l-0.00169,0.00585h0.94338zM443.96351,307.72574l1.91394,5.17399h-3.828z" data-paper-data="{&quot;glyphName&quot;:&quot;A&quot;,&quot;glyphIndex&quot;:29,&quot;word&quot;:5}" style="scrollbar-width: thin;"></path><path d="M458.12379,314.31554l-5.69503,-7.87257l-0.00085,-0.00171h-1.09005v9.10326h0.00426v0.00094h0.88108v-7.87683l2.40697,3.32644l3.28976,4.54784l0.00085,0.00162h0.20641v0.00094h0.88193v-9.1042h-0.88534z" data-paper-data="{&quot;glyphName&quot;:&quot;N&quot;,&quot;glyphIndex&quot;:30,&quot;word&quot;:5}" style="scrollbar-width: thin;"></path><path d="M462.56088,307.32576h3.39296v8.21971h0.88534v-8.21971h3.39296v-0.88449h-7.67127z" data-paper-data="{&quot;glyphName&quot;:&quot;T&quot;,&quot;glyphIndex&quot;:31,&quot;word&quot;:5}" style="scrollbar-width: thin;"></path><path d="M474.22654,314.66014c-0.24387,0 -0.44264,0.19863 -0.44264,0.44264c0,0.24387 0.19876,0.44186 0.44264,0.44186c0.244,0 0.44277,-0.19798 0.44277,-0.44186c0,-0.244 -0.19876,-0.44264 -0.44277,-0.44264z" data-paper-data="{&quot;glyphName&quot;:&quot;.&quot;,&quot;glyphIndex&quot;:32,&quot;lastGlyphOfWord&quot;:true,&quot;word&quot;:5}" style="scrollbar-width: thin;"></path></g><g data-paper-data="{&quot;isPrimaryText&quot;:true}" style="scrollbar-width: thin;"><path d="M124.19101,154.45463v10.21607h-21.2105v123.66304h-10.21607v-123.66304h-21.2105v-10.21607z" data-paper-data="{&quot;glyphName&quot;:&quot;T&quot;,&quot;glyphIndex&quot;:0,&quot;firstGlyphOfWord&quot;:true,&quot;word&quot;:1}" fill-rule="nonzero" style="scrollbar-width: thin;"></path><path d="M190.44949,154.45463v133.87911h-10.21607v-35.3184h-32.20493v35.3184h-10.21607v-133.87911h10.21607v88.34464h32.20493v-88.34464z" data-paper-data="{&quot;glyphName&quot;:&quot;H&quot;,&quot;glyphIndex&quot;:1,&quot;word&quot;:1}" fill-rule="nonzero" style="scrollbar-width: thin;"></path><path d="M204.07091,154.45463h10.21607v133.87911h-10.21607z" data-paper-data="{&quot;glyphName&quot;:&quot;I&quot;,&quot;glyphIndex&quot;:2,&quot;word&quot;:1}" fill-rule="nonzero" style="scrollbar-width: thin;"></path><path d="M254.17828,154.45463c7.32962,0 13.55656,2.56212 18.68081,7.68637c5.12425,5.12425 7.68637,11.31875 7.68637,18.58351v107.60922h-10.21607v-107.60922c0,-4.41075 -1.58917,-8.17285 -4.7675,-11.28632c-3.11347,-3.17833 -6.90801,-4.7675 -11.38362,-4.7675c-4.41075,0 -8.17285,1.58917 -11.28632,4.7675c-3.17833,3.11347 -4.7675,6.87557 -4.7675,11.28632v107.60922h-10.21607v-107.60922c0,-7.26476 2.56212,-13.45926 7.68637,-18.58351c5.12425,-5.12425 11.31875,-7.68637 18.58351,-7.68637z" data-paper-data="{&quot;glyphName&quot;:&quot;N&quot;,&quot;glyphIndex&quot;:3,&quot;word&quot;:1}" fill-rule="nonzero" style="scrollbar-width: thin;"></path><path d="M320.43676,154.45463c7.32962,0 13.55656,2.56212 18.68081,7.68637c5.12425,5.12425 7.68637,11.31875 7.68637,18.58351v107.60922h-10.21607v-107.60922c0,-4.41075 -1.58917,-8.17285 -4.7675,-11.28632c-3.11347,-3.17833 -6.90801,-4.7675 -11.38362,-4.7675c-4.41075,0 -8.17285,1.58917 -11.28632,4.7675c-3.17833,3.11347 -4.7675,6.87557 -4.7675,11.28632v107.60922h-10.21607v-107.60922c0,-7.26476 2.56212,-13.45926 7.68637,-18.58351c5.12425,-5.12425 11.31875,-7.68637 18.58351,-7.68637z" data-paper-data="{&quot;glyphName&quot;:&quot;N&quot;,&quot;glyphIndex&quot;:4,&quot;word&quot;:1}" fill-rule="nonzero" style="scrollbar-width: thin;"></path><path d="M402.45718,154.45463v10.21607h-31.81575v78.12858h14.1079v10.21607h-14.1079v25.10233h31.81575v10.21607h-42.03181v-133.87911z" data-paper-data="{&quot;glyphName&quot;:&quot;E&quot;,&quot;glyphIndex&quot;:5,&quot;word&quot;:1}" fill-rule="nonzero" style="scrollbar-width: thin;"></path><g data-paper-data="{&quot;isIcon&quot;:&quot;true&quot;,&quot;iconType&quot;:&quot;icon&quot;,&quot;rawIconId&quot;:&quot;1689689&quot;,&quot;selectedEffects&quot;:{&quot;container&quot;:&quot;&quot;,&quot;transformation&quot;:&quot;&quot;,&quot;pattern&quot;:&quot;&quot;},&quot;isDetailed&quot;:false,&quot;fillRule&quot;:&quot;evenodd&quot;,&quot;bounds&quot;:{&quot;x&quot;:413.45021998602687,&quot;y&quot;:154.45453295027733,&quot;width&quot;:64.99583159076468,&quot;height&quot;:133.87910670035313},&quot;iconStyle&quot;:&quot;icon-in-text&quot;,&quot;suitableAsStandaloneIcon&quot;:true}" fill-rule="evenodd" style="scrollbar-width: thin;"><path d="M457.03592,245.9897c6.22115,-4.59698 11.05535,-9.78548 14.50262,-15.56553l0.01205,-0.01946c4.59698,-7.79404 6.89546,-16.28186 6.89546,-25.46345c0,-13.57285 -4.75328,-25.27873 -14.25983,-35.11765c-9.26314,-9.45775 -19.84125,-14.53382 -31.73433,-15.22821c-0.37685,-0.0939 -0.75957,-0.14086 -1.14816,-0.14086h-13.10796c-0.07784,0 -0.15537,0.00185 -0.2326,0.00556c-0.07784,0.00371 -0.15537,0.00927 -0.2326,0.01668c-0.07722,0.00803 -0.15414,0.01761 -0.23074,0.02873c-0.07722,0.01174 -0.15383,0.02502 -0.22982,0.03985c-0.07599,0.01544 -0.15167,0.03243 -0.22704,0.05097c-0.07537,0.01915 -0.15043,0.03985 -0.22518,0.06209c-0.07413,0.02286 -0.14765,0.04726 -0.22055,0.07321c-0.07352,0.02595 -0.14611,0.05375 -0.21777,0.0834c-0.07166,0.03027 -0.14271,0.06178 -0.21314,0.09452c-0.06981,0.03336 -0.139,0.06827 -0.20758,0.10472c-0.06857,0.03707 -0.13622,0.07537 -0.20294,0.11491c-0.06672,0.04016 -0.13221,0.08186 -0.19646,0.1251c-0.06487,0.04325 -0.1285,0.08773 -0.1909,0.13344c-0.0624,0.04633 -0.12356,0.09421 -0.18348,0.14364c-0.05993,0.04942 -0.11862,0.10008 -0.17607,0.15198c-0.05745,0.05251 -0.11367,0.10626 -0.16866,0.16124c-0.05498,0.05498 -0.10873,0.1112 -0.16124,0.16866c-0.05189,0.05745 -0.10255,0.11614 -0.15198,0.17607c-0.04942,0.05993 -0.0973,0.12109 -0.14364,0.18348c-0.04572,0.0624 -0.0902,0.12603 -0.13344,0.1909c-0.04325,0.06425 -0.08495,0.12974 -0.1251,0.19646c-0.03954,0.06672 -0.07784,0.13437 -0.11491,0.20294c-0.03645,0.06857 -0.07135,0.13777 -0.10472,0.20758c-0.03274,0.07043 -0.06425,0.14147 -0.09452,0.21314c-0.02965,0.07166 -0.05745,0.14425 -0.0834,0.21777c-0.02595,0.0729 -0.05035,0.14642 -0.07321,0.22055c-0.02224,0.07475 -0.04294,0.14981 -0.06209,0.22518c-0.01853,0.07537 -0.03552,0.15105 -0.05097,0.22704c-0.01544,0.07599 -0.02873,0.15259 -0.03985,0.22982c-0.01112,0.07661 -0.0207,0.15352 -0.02873,0.23074c-0.00741,0.07722 -0.01297,0.15476 -0.01668,0.2326c-0.00371,0.07722 -0.00556,0.15476 -0.00556,0.2326v124.388c0,0.07784 0.00185,0.15537 0.00556,0.2326c0.00371,0.07784 0.00927,0.15537 0.01668,0.2326c0.00803,0.07722 0.01761,0.15414 0.02873,0.23074c0.01112,0.07722 0.0244,0.15383 0.03985,0.22982c0.01544,0.07599 0.03243,0.15167 0.05097,0.22704c0.01915,0.07537 0.03985,0.15043 0.06209,0.22518c0.02286,0.07413 0.04726,0.14765 0.07321,0.22055c0.02595,0.07352 0.05375,0.14611 0.0834,0.21777c0.03027,0.07166 0.06178,0.14271 0.09452,0.21314c0.03336,0.06981 0.06827,0.139 0.10472,0.20758c0.03707,0.06857 0.07537,0.13622 0.11491,0.20294c0.04016,0.06672 0.08186,0.13221 0.1251,0.19646c0.04325,0.06487 0.08773,0.1285 0.13344,0.1909c0.04633,0.0624 0.09421,0.12356 0.14364,0.18348c0.04942,0.05993 0.10008,0.11862 0.15198,0.17607c0.05251,0.05745 0.10626,0.11367 0.16124,0.16866c0.05498,0.05498 0.1112,0.10873 0.16866,0.16124c0.05745,0.05189 0.11614,0.10255 0.17607,0.15198c0.05993,0.04942 0.12109,0.0973 0.18348,0.14364c0.0624,0.04572 0.12603,0.0902 0.1909,0.13344c0.06425,0.04325 0.12974,0.08495 0.19646,0.1251c0.06672,0.03954 0.13437,0.07784 0.20294,0.11491c0.06857,0.03645 0.13777,0.07135 0.20758,0.10472c0.07043,0.03274 0.14147,0.06425 0.21314,0.09452c0.07166,0.02965 0.14425,0.05745 0.21777,0.0834c0.0729,0.02595 0.14642,0.05035 0.22055,0.07321c0.07475,0.02224 0.14981,0.04294 0.22518,0.06209c0.07537,0.01853 0.15105,0.03552 0.22704,0.05097c0.07599,0.01544 0.15259,0.02873 0.22982,0.03985c0.07661,0.01112 0.15352,0.0207 0.23074,0.02873c0.07722,0.00741 0.15476,0.01297 0.2326,0.01668c0.07722,0.00371 0.15476,0.00556 0.2326,0.00556h55.32402c0.07784,0 0.15537,-0.00185 0.2326,-0.00556c0.07784,-0.00371 0.15537,-0.00927 0.2326,-0.01668c0.07722,-0.00803 0.15414,-0.01761 0.23074,-0.02873c0.07722,-0.01112 0.15383,-0.0244 0.22982,-0.03985c0.07599,-0.01544 0.15167,-0.03243 0.22704,-0.05097c0.07537,-0.01915 0.15043,-0.03985 0.22518,-0.06209c0.07413,-0.02286 0.14765,-0.04726 0.22055,-0.07321c0.07352,-0.02595 0.14611,-0.05375 0.21777,-0.0834c0.07166,-0.03027 0.14271,-0.06178 0.21314,-0.09452c0.06981,-0.03336 0.139,-0.06827 0.20758,-0.10472c0.06857,-0.03707 0.13622,-0.07537 0.20294,-0.11491c0.06672,-0.04016 0.13221,-0.08186 0.19646,-0.1251c0.06487,-0.04325 0.1285,-0.08773 0.1909,-0.13344c0.0624,-0.04633 0.12356,-0.09421 0.18348,-0.14364c0.05993,-0.04942 0.11862,-0.10008 0.17607,-0.15198c0.05745,-0.05251 0.11367,-0.10626 0.16866,-0.16124c0.05498,-0.05498 0.10873,-0.1112 0.16124,-0.16866c0.05189,-0.05745 0.10255,-0.11614 0.15198,-0.17607c0.04942,-0.05993 0.0973,-0.12109 0.14364,-0.18348c0.04572,-0.0624 0.0902,-0.12603 0.13344,-0.1909c0.04325,-0.06425 0.08495,-0.12974 0.1251,-0.19646c0.03954,-0.06672 0.07784,-0.13437 0.11491,-0.20294c0.03645,-0.06857 0.07135,-0.13777 0.10472,-0.20758c0.03274,-0.07043 0.06425,-0.14147 0.09452,-0.21314c0.02965,-0.07166 0.05745,-0.14425 0.0834,-0.21777c0.02595,-0.0729 0.05035,-0.14642 0.07321,-0.22055c0.02224,-0.07475 0.04294,-0.14981 0.06209,-0.22518c0.01853,-0.07537 0.03552,-0.15105 0.05097,-0.22704c0.01544,-0.07599 0.02873,-0.15259 0.03985,-0.22982c0.01112,-0.07661 0.0207,-0.15352 0.02873,-0.23074c0.00741,-0.07722 0.01297,-0.15476 0.01668,-0.2326c0.00371,-0.07722 0.00556,-0.15476 0.00556,-0.2326c0,-0.04263 -0.00031,-0.08526 -0.00093,-0.12788c-0.20387,-7.53333 -2.60491,-15.06481 -7.20312,-22.59443c-3.3719,-5.48598 -8.04702,-10.44467 -14.02538,-14.87607zM430.37983,163.94564c0.24526,0.04881 0.49269,0.07815 0.74227,0.08804c9.77035,0.37376 18.5164,4.50245 26.23816,12.38607c7.72979,7.99976 11.59468,17.50693 11.59468,28.52151c0,7.44684 -1.85615,14.32068 -5.56845,20.62152c-0.00371,0.00618 -0.00741,0.01266 -0.01112,0.01946c-3.68944,6.17605 -9.46732,11.61878 -17.33364,16.32819c-0.33361,0.20016 -0.63849,0.4377 -0.91464,0.71262c-0.27553,0.27492 -0.51369,0.57918 -0.71447,0.91278c-0.03954,0.06672 -0.07784,0.13437 -0.11491,0.20294c-0.03645,0.06796 -0.07135,0.13715 -0.10472,0.20758c-0.03336,0.07043 -0.06487,0.14147 -0.09452,0.21314c-0.03027,0.07166 -0.05838,0.14395 -0.08433,0.21684c-0.02656,0.0729 -0.05097,0.14673 -0.07321,0.22148c-0.02286,0.07413 -0.04386,0.14889 -0.06301,0.22426c-0.01915,0.07537 -0.03614,0.15105 -0.05097,0.22704c-0.01544,0.07599 -0.02904,0.15259 -0.04077,0.22982c-0.01112,0.07661 -0.0207,0.15352 -0.02873,0.23074c-0.00741,0.07722 -0.01328,0.15476 -0.01761,0.2326c-0.00371,0.07722 -0.00556,0.15476 -0.00556,0.2326c-0.00062,0.07784 0.00093,0.15537 0.00463,0.2326c0.00371,0.07784 0.00927,0.15537 0.01668,0.2326c0.00803,0.07722 0.01761,0.15414 0.02873,0.23074c0.01112,0.07722 0.02409,0.15383 0.03892,0.22982c0.01544,0.07661 0.03243,0.15259 0.05097,0.22796c0.01915,0.07537 0.03985,0.15012 0.06209,0.22426c0.02224,0.07413 0.04633,0.14796 0.07228,0.22148c0.02595,0.0729 0.05375,0.14518 0.0834,0.21684c0.02965,0.07228 0.06116,0.14333 0.09452,0.21314c0.03274,0.07043 0.06765,0.13993 0.10472,0.2085c0.03645,0.06857 0.07444,0.13622 0.11398,0.20294c0.04016,0.06672 0.08155,0.13252 0.12418,0.19738c0.04325,0.06425 0.08804,0.12757 0.13437,0.18997c0.04572,0.0624 0.09329,0.12387 0.14271,0.18441c0.04942,0.05993 0.10008,0.11862 0.15198,0.17607c0.05189,0.05807 0.10533,0.1146 0.16032,0.16958c0.05498,0.05498 0.1112,0.10842 0.16866,0.16032c0.05745,0.05251 0.11614,0.10348 0.17607,0.1529c0.05993,0.04942 0.12109,0.0973 0.18348,0.14364c0.0624,0.04633 0.12572,0.09112 0.18997,0.13437c0.06425,0.04325 0.12974,0.08495 0.19646,0.1251c7.65627,4.60501 13.29855,9.85931 16.92683,15.76291c2.69171,4.40731 4.45056,8.75069 5.27654,13.03012h-45.29544v-114.89689z" style="scrollbar-width: thin;"></path><path d="M440.37668,199.74866v20.23743h-0.05828l-15.15471,-15.15519l20.99945,-20.99945l20.99945,20.99945l-15.15519,15.15519h-0.0578v-20.23743h-2.14253v20.23743h-2.57219v-24.64628h-2.14349v24.64628h-2.57171v-20.23743z" data-paper-data="{&quot;isPathIcon&quot;:true}" style="scrollbar-width: thin;"></path></g></g></g></g></svg>